<svg xmlns="http://www.w3.org/2000/svg" viewBox="-1836.55 -700 4986.67 3740" width="4986.67" height="3740" font-family="Inter, 'Segoe UI', system-ui, -apple-system, sans-serif" stroke-linejoin="round" stroke-linecap="round">
<rect x="-1836.55" y="-700" width="4986.67" height="3740" fill="#fdf6e3"/>
<rect x="290" y="-190" width="840" height="3200" rx="8" fill="#5b4b8a" fill-opacity="0.13" stroke="#5b4b8a" stroke-width="2"/>
<rect x="-20" y="-60" width="190" height="1470" rx="8" fill="#0f766e" fill-opacity="0.13" stroke="#0f766e" stroke-width="2"/>
<rect x="530" y="1880" width="570" height="300" rx="8" fill="#0f766e" fill-opacity="0.13" stroke="#0f766e" stroke-width="2"/>
<rect x="530" y="2280" width="570" height="300" rx="8" fill="#0f766e" fill-opacity="0.13" stroke="#0f766e" stroke-width="2"/>
<rect x="530" y="2680" width="570" height="300" rx="8" fill="#0f766e" fill-opacity="0.13" stroke="#0f766e" stroke-width="2"/>
<rect x="530" y="-120" width="570" height="300" rx="8" fill="#0f766e" fill-opacity="0.13" stroke="#0f766e" stroke-width="2"/>
<rect x="530" y="280" width="570" height="300" rx="8" fill="#0f766e" fill-opacity="0.13" stroke="#0f766e" stroke-width="2"/>
<rect x="530" y="680" width="570" height="300" rx="8" fill="#0f766e" fill-opacity="0.13" stroke="#0f766e" stroke-width="2"/>
<rect x="530" y="1080" width="570" height="300" rx="8" fill="#0f766e" fill-opacity="0.13" stroke="#0f766e" stroke-width="2"/>
<rect x="530" y="1480" width="570" height="300" rx="8" fill="#0f766e" fill-opacity="0.13" stroke="#0f766e" stroke-width="2"/>
<rect x="1250" y="-120" width="100" height="680" rx="8" fill="#1d4ed8" fill-opacity="0.13" stroke="#1d4ed8" stroke-width="2"/>
<rect x="-20" y="1470" width="190" height="210" rx="8" fill="#b45309" fill-opacity="0.13" stroke="#b45309" stroke-width="2"/>
<path d="M620 140C695 140 695 150 770 150" fill="none" stroke="hsla(330, 95%, 47%, 0.35)" stroke-width="9"/>
<path d="M620 140C695 140 695 150 770 150" fill="none" stroke="hsl(330, 95%, 47%)" stroke-width="3"/>
<path d="M820 -40C907.25 -40 907.25 -50 994.5 -50" fill="none" stroke="hsl(195, 50%, 28%)" stroke-width="2.5"/>
<path d="M1060 140C1165.25 140 889.25 -30 994.5 -30" fill="none" stroke="hsl(240, 50%, 28%)" stroke-width="2.5"/>
<path d="M1060 -40C1165.25 -40 889.25 130 994.5 130" fill="none" stroke="hsla(315, 95%, 47%, 0.35)" stroke-width="9"/>
<path d="M1060 -40C1165.25 -40 889.25 130 994.5 130" fill="none" stroke="hsl(315, 95%, 47%)" stroke-width="3"/>
<path d="M820 140C907.25 140 907.25 150 994.5 150" fill="none" stroke="hsl(300, 50%, 28%)" stroke-width="2.5"/>
<path d="M620 540C695 540 695 550 770 550" fill="none" stroke="hsla(30, 95%, 47%, 0.35)" stroke-width="9"/>
<path d="M620 540C695 540 695 550 770 550" fill="none" stroke="hsl(30, 95%, 47%)" stroke-width="3"/>
<path d="M820 360C907.25 360 907.25 350 994.5 350" fill="none" stroke="hsl(120, 50%, 28%)" stroke-width="2.5"/>
<path d="M1060 540C1165.25 540 889.25 370 994.5 370" fill="none" stroke="hsl(30, 50%, 28%)" stroke-width="2.5"/>
<path d="M1060 360C1165.25 360 889.25 530 994.5 530" fill="none" stroke="hsla(75, 95%, 47%, 0.35)" stroke-width="9"/>
<path d="M1060 360C1165.25 360 889.25 530 994.5 530" fill="none" stroke="hsl(75, 95%, 47%)" stroke-width="3"/>
<path d="M820 540C907.25 540 907.25 550 994.5 550" fill="none" stroke="hsl(345, 50%, 28%)" stroke-width="2.5"/>
<path d="M620 940C695 940 695 950 770 950" fill="none" stroke="hsla(315, 95%, 47%, 0.35)" stroke-width="9"/>
<path d="M620 940C695 940 695 950 770 950" fill="none" stroke="hsl(315, 95%, 47%)" stroke-width="3"/>
<path d="M820 760C907.25 760 907.25 750 994.5 750" fill="none" stroke="hsl(240, 50%, 28%)" stroke-width="2.5"/>
<path d="M1060 940C1165.25 940 889.25 770 994.5 770" fill="none" stroke="hsl(75, 50%, 28%)" stroke-width="2.5"/>
<path d="M1060 760C1165.25 760 889.25 930 994.5 930" fill="none" stroke="hsla(0, 95%, 47%, 0.35)" stroke-width="9"/>
<path d="M1060 760C1165.25 760 889.25 930 994.5 930" fill="none" stroke="hsl(0, 95%, 47%)" stroke-width="3"/>
<path d="M820 940C907.25 940 907.25 950 994.5 950" fill="none" stroke="hsl(135, 50%, 28%)" stroke-width="2.5"/>
<path d="M620 1340C695 1340 695 1350 770 1350" fill="none" stroke="hsla(165, 95%, 47%, 0.35)" stroke-width="9"/>
<path d="M620 1340C695 1340 695 1350 770 1350" fill="none" stroke="hsl(165, 95%, 47%)" stroke-width="3"/>
<path d="M820 1160C907.25 1160 907.25 1150 994.5 1150" fill="none" stroke="hsl(225, 50%, 28%)" stroke-width="2.5"/>
<path d="M1060 1340C1165.25 1340 889.25 1170 994.5 1170" fill="none" stroke="hsl(45, 50%, 28%)" stroke-width="2.5"/>
<path d="M1060 1160C1165.25 1160 889.25 1330 994.5 1330" fill="none" stroke="hsla(0, 95%, 47%, 0.35)" stroke-width="9"/>
<path d="M1060 1160C1165.25 1160 889.25 1330 994.5 1330" fill="none" stroke="hsl(0, 95%, 47%)" stroke-width="3"/>
<path d="M820 1340C907.25 1340 907.25 1350 994.5 1350" fill="none" stroke="hsl(240, 50%, 28%)" stroke-width="2.5"/>
<path d="M620 1740C695 1740 695 1750 770 1750" fill="none" stroke="hsla(0, 95%, 47%, 0.35)" stroke-width="9"/>
<path d="M620 1740C695 1740 695 1750 770 1750" fill="none" stroke="hsl(0, 95%, 47%)" stroke-width="3"/>
<path d="M820 1560C907.25 1560 907.25 1550 994.5 1550" fill="none" stroke="hsl(45, 50%, 28%)" stroke-width="2.5"/>
<path d="M1060 1740C1165.25 1740 889.25 1570 994.5 1570" fill="none" stroke="hsl(255, 50%, 28%)" stroke-width="2.5"/>
<path d="M1060 1560C1165.25 1560 889.25 1730 994.5 1730" fill="none" stroke="hsla(330, 95%, 47%, 0.35)" stroke-width="9"/>
<path d="M1060 1560C1165.25 1560 889.25 1730 994.5 1730" fill="none" stroke="hsl(330, 95%, 47%)" stroke-width="3"/>
<path d="M820 1740C907.25 1740 907.25 1750 994.5 1750" fill="none" stroke="hsl(330, 50%, 28%)" stroke-width="2.5"/>
<path d="M620 2140C695 2140 695 2150 770 2150" fill="none" stroke="hsla(300, 95%, 47%, 0.35)" stroke-width="9"/>
<path d="M620 2140C695 2140 695 2150 770 2150" fill="none" stroke="hsl(300, 95%, 47%)" stroke-width="3"/>
<path d="M820 1960C907.25 1960 907.25 1950 994.5 1950" fill="none" stroke="hsl(60, 50%, 28%)" stroke-width="2.5"/>
<path d="M1060 2140C1165.25 2140 889.25 1970 994.5 1970" fill="none" stroke="hsl(120, 50%, 28%)" stroke-width="2.5"/>
<path d="M1060 1960C1165.25 1960 889.25 2130 994.5 2130" fill="none" stroke="hsla(225, 95%, 47%, 0.35)" stroke-width="9"/>
<path d="M1060 1960C1165.25 1960 889.25 2130 994.5 2130" fill="none" stroke="hsl(225, 95%, 47%)" stroke-width="3"/>
<path d="M820 2140C907.25 2140 907.25 2150 994.5 2150" fill="none" stroke="hsl(285, 50%, 28%)" stroke-width="2.5"/>
<path d="M620 2540C695 2540 695 2550 770 2550" fill="none" stroke="hsla(315, 95%, 47%, 0.35)" stroke-width="9"/>
<path d="M620 2540C695 2540 695 2550 770 2550" fill="none" stroke="hsl(315, 95%, 47%)" stroke-width="3"/>
<path d="M820 2360C907.25 2360 907.25 2350 994.5 2350" fill="none" stroke="hsl(0, 50%, 28%)" stroke-width="2.5"/>
<path d="M1060 2540C1165.25 2540 889.25 2370 994.5 2370" fill="none" stroke="hsl(315, 50%, 28%)" stroke-width="2.5"/>
<path d="M1060 2360C1165.25 2360 889.25 2530 994.5 2530" fill="none" stroke="hsla(30, 95%, 47%, 0.35)" stroke-width="9"/>
<path d="M1060 2360C1165.25 2360 889.25 2530 994.5 2530" fill="none" stroke="hsl(30, 95%, 47%)" stroke-width="3"/>
<path d="M820 2540C907.25 2540 907.25 2550 994.5 2550" fill="none" stroke="hsl(45, 50%, 28%)" stroke-width="2.5"/>
<path d="M620 2940C695 2940 695 2950 770 2950" fill="none" stroke="hsla(30, 95%, 47%, 0.35)" stroke-width="9"/>
<path d="M620 2940C695 2940 695 2950 770 2950" fill="none" stroke="hsl(30, 95%, 47%)" stroke-width="3"/>
<path d="M820 2760C907.25 2760 907.25 2750 994.5 2750" fill="none" stroke="hsl(75, 50%, 28%)" stroke-width="2.5"/>
<path d="M1060 2940C1165.25 2940 889.25 2770 994.5 2770" fill="none" stroke="hsl(165, 50%, 28%)" stroke-width="2.5"/>
<path d="M1060 2760C1165.25 2760 889.25 2930 994.5 2930" fill="none" stroke="hsla(150, 95%, 47%, 0.35)" stroke-width="9"/>
<path d="M1060 2760C1165.25 2760 889.25 2930 994.5 2930" fill="none" stroke="hsl(150, 95%, 47%)" stroke-width="3"/>
<path d="M820 2940C907.25 2940 907.25 2950 994.5 2950" fill="none" stroke="hsl(300, 50%, 28%)" stroke-width="2.5"/>
<path d="M120 1590C150 1590 160 1510 160 1480" fill="none" stroke="hsl(30, 50%, 28%)" stroke-width="2.5"/>
<path d="M160 1460C160 1430 250 1440 280 1440" fill="none" stroke="hsl(30, 50%, 28%)" stroke-width="2.5"/>
<path d="M300 1440C330 1440 300 -40 330 -40" fill="none" stroke="hsl(30, 50%, 28%)" stroke-width="2.5"/>
<path d="M120 60C150 60 129 1014 159 1014" fill="none" stroke="hsl(135, 50%, 28%)" stroke-width="2.5"/>
<path d="M301 1034C410.5 1034 410.5 140 520 140" fill="none" stroke="hsl(135, 50%, 28%)" stroke-width="2.5"/>
<path d="M540 140C570 140 540 140 570 140" fill="none" stroke="hsl(135, 50%, 28%)" stroke-width="2.5"/>
<path d="M540 140C655 140 655 -50 770 -50" fill="none" stroke="hsl(135, 50%, 28%)" stroke-width="2.5"/>
<path d="M370 -40C445 -40 445 -40 520 -40" fill="none" stroke="hsl(240, 50%, 28%)" stroke-width="2.5"/>
<path d="M540 -40C655 -40 655 -30 770 -30" fill="none" stroke="hsl(240, 50%, 28%)" stroke-width="2.5"/>
<path d="M540 -40C655 -40 655 130 770 130" fill="none" stroke="hsl(240, 50%, 28%)" stroke-width="2.5"/>
<path d="M120 240C150 240 129 1030 159 1030" fill="none" stroke="hsl(0, 50%, 28%)" stroke-width="2.5"/>
<path d="M301 1050C410.5 1050 410.5 540 520 540" fill="none" stroke="hsl(0, 50%, 28%)" stroke-width="2.5"/>
<path d="M540 540C570 540 540 540 570 540" fill="none" stroke="hsl(0, 50%, 28%)" stroke-width="2.5"/>
<path d="M540 540C655 540 655 350 770 350" fill="none" stroke="hsl(0, 50%, 28%)" stroke-width="2.5"/>
<path d="M370 -40C455 -40 540 185 540 270" fill="none" stroke="hsl(240, 50%, 28%)" stroke-width="2.5"/>
<path d="M540 290C540 330 730 370 770 370" fill="none" stroke="hsl(240, 50%, 28%)" stroke-width="2.5"/>
<path d="M540 290C540 410 650 530 770 530" fill="none" stroke="hsl(240, 50%, 28%)" stroke-width="2.5"/>
<path d="M120 420C150 420 129 1046 159 1046" fill="none" stroke="hsl(285, 50%, 28%)" stroke-width="2.5"/>
<path d="M301 1066C410.5 1066 410.5 940 520 940" fill="none" stroke="hsl(285, 50%, 28%)" stroke-width="2.5"/>
<path d="M540 940C570 940 540 940 570 940" fill="none" stroke="hsl(285, 50%, 28%)" stroke-width="2.5"/>
<path d="M540 940C655 940 655 750 770 750" fill="none" stroke="hsl(285, 50%, 28%)" stroke-width="2.5"/>
<path d="M370 -40C455 -40 540 585 540 670" fill="none" stroke="hsl(240, 50%, 28%)" stroke-width="2.5"/>
<path d="M540 690C540 730 730 770 770 770" fill="none" stroke="hsl(240, 50%, 28%)" stroke-width="2.5"/>
<path d="M540 690C540 810 650 930 770 930" fill="none" stroke="hsl(240, 50%, 28%)" stroke-width="2.5"/>
<path d="M120 600C150 600 129 1062 159 1062" fill="none" stroke="hsl(270, 50%, 28%)" stroke-width="2.5"/>
<path d="M301 1082C410.5 1082 410.5 1340 520 1340" fill="none" stroke="hsl(270, 50%, 28%)" stroke-width="2.5"/>
<path d="M540 1340C570 1340 540 1340 570 1340" fill="none" stroke="hsl(270, 50%, 28%)" stroke-width="2.5"/>
<path d="M540 1340C655 1340 655 1150 770 1150" fill="none" stroke="hsl(270, 50%, 28%)" stroke-width="2.5"/>
<path d="M370 -40C455 -40 540 985 540 1070" fill="none" stroke="hsl(240, 50%, 28%)" stroke-width="2.5"/>
<path d="M540 1090C540 1130 730 1170 770 1170" fill="none" stroke="hsl(240, 50%, 28%)" stroke-width="2.5"/>
<path d="M540 1090C540 1210 650 1330 770 1330" fill="none" stroke="hsl(240, 50%, 28%)" stroke-width="2.5"/>
<path d="M120 780C150 780 129 1078 159 1078" fill="none" stroke="hsl(195, 50%, 28%)" stroke-width="2.5"/>
<path d="M301 1098C410.5 1098 410.5 1490 520 1490" fill="none" stroke="hsl(195, 50%, 28%)" stroke-width="2.5"/>
<path d="M540 1490C570 1490 540 1740 570 1740" fill="none" stroke="hsl(195, 50%, 28%)" stroke-width="2.5"/>
<path d="M540 1490C655 1490 655 1550 770 1550" fill="none" stroke="hsl(195, 50%, 28%)" stroke-width="2.5"/>
<path d="M370 -40C455 -40 540 1385 540 1470" fill="none" stroke="hsl(240, 50%, 28%)" stroke-width="2.5"/>
<path d="M540 1490C540 1530 730 1570 770 1570" fill="none" stroke="hsl(240, 50%, 28%)" stroke-width="2.5"/>
<path d="M540 1490C540 1610 650 1730 770 1730" fill="none" stroke="hsl(240, 50%, 28%)" stroke-width="2.5"/>
<path d="M120 960C150 960 129 1094 159 1094" fill="none" stroke="hsl(60, 50%, 28%)" stroke-width="2.5"/>
<path d="M301 1114C420.5 1114 540 1750.5 540 1870" fill="none" stroke="hsl(60, 50%, 28%)" stroke-width="2.5"/>
<path d="M540 1890C540 2015 445 2140 570 2140" fill="none" stroke="hsl(60, 50%, 28%)" stroke-width="2.5"/>
<path d="M540 1890C540 1920 740 1950 770 1950" fill="none" stroke="hsl(60, 50%, 28%)" stroke-width="2.5"/>
<path d="M370 -40C465 -40 560 1775 560 1870" fill="none" stroke="hsl(240, 50%, 28%)" stroke-width="2.5"/>
<path d="M560 1890C560 1930 730 1970 770 1970" fill="none" stroke="hsl(240, 50%, 28%)" stroke-width="2.5"/>
<path d="M560 1890C560 2010 650 2130 770 2130" fill="none" stroke="hsl(240, 50%, 28%)" stroke-width="2.5"/>
<path d="M120 1140C150 1140 129 1110 159 1110" fill="none" stroke="hsl(345, 50%, 28%)" stroke-width="2.5"/>
<path d="M301 1130C420.5 1130 540 2150.5 540 2270" fill="none" stroke="hsl(345, 50%, 28%)" stroke-width="2.5"/>
<path d="M540 2290C540 2415 445 2540 570 2540" fill="none" stroke="hsl(345, 50%, 28%)" stroke-width="2.5"/>
<path d="M540 2290C540 2320 740 2350 770 2350" fill="none" stroke="hsl(345, 50%, 28%)" stroke-width="2.5"/>
<path d="M370 -40C465 -40 560 2175 560 2270" fill="none" stroke="hsl(240, 50%, 28%)" stroke-width="2.5"/>
<path d="M560 2290C560 2330 730 2370 770 2370" fill="none" stroke="hsl(240, 50%, 28%)" stroke-width="2.5"/>
<path d="M560 2290C560 2410 650 2530 770 2530" fill="none" stroke="hsl(240, 50%, 28%)" stroke-width="2.5"/>
<path d="M120 1320C150 1320 129 1126 159 1126" fill="none" stroke="hsl(330, 50%, 28%)" stroke-width="2.5"/>
<path d="M301 1146C420.5 1146 540 2550.5 540 2670" fill="none" stroke="hsl(330, 50%, 28%)" stroke-width="2.5"/>
<path d="M540 2690C540 2815 445 2940 570 2940" fill="none" stroke="hsl(330, 50%, 28%)" stroke-width="2.5"/>
<path d="M540 2690C540 2720 740 2750 770 2750" fill="none" stroke="hsl(330, 50%, 28%)" stroke-width="2.5"/>
<path d="M370 -40C465 -40 560 2575 560 2670" fill="none" stroke="hsl(240, 50%, 28%)" stroke-width="2.5"/>
<path d="M560 2690C560 2730 730 2770 770 2770" fill="none" stroke="hsl(240, 50%, 28%)" stroke-width="2.5"/>
<path d="M560 2690C560 2810 650 2930 770 2930" fill="none" stroke="hsl(240, 50%, 28%)" stroke-width="2.5"/>
<path d="M1060 140C1090 140 1060 -40 1090 -40" fill="none" stroke="hsl(240, 50%, 28%)" stroke-width="2.5"/>
<path d="M1110 -40C1140 -40 1089 594 1119 594" fill="none" stroke="hsl(240, 50%, 28%)" stroke-width="2.5"/>
<path d="M1261 184C1291 184 1263 -40 1293 -40" fill="none" stroke="hsl(240, 50%, 28%)" stroke-width="2.5"/>
<path d="M1060 540C1090 540 1090 320 1090 290" fill="none" stroke="hsl(30, 50%, 28%)" stroke-width="2.5"/>
<path d="M1090 270C1090 62.75 911.75 610 1119 610" fill="none" stroke="hsl(30, 50%, 28%)" stroke-width="2.5"/>
<path d="M1261 200C1291 200 1263 40 1293 40" fill="none" stroke="hsl(30, 50%, 28%)" stroke-width="2.5"/>
<path d="M1060 940C1090 940 1090 720 1090 690" fill="none" stroke="hsl(75, 50%, 28%)" stroke-width="2.5"/>
<path d="M1090 670C1090 640 1089 626 1119 626" fill="none" stroke="hsl(75, 50%, 28%)" stroke-width="2.5"/>
<path d="M1261 216C1291 216 1263 120 1293 120" fill="none" stroke="hsl(75, 50%, 28%)" stroke-width="2.5"/>
<path d="M1060 1340C1090 1340 1090 1120 1090 1090" fill="none" stroke="hsl(45, 50%, 28%)" stroke-width="2.5"/>
<path d="M1090 1070C1090 856 905 642 1119 642" fill="none" stroke="hsl(45, 50%, 28%)" stroke-width="2.5"/>
<path d="M1261 232C1291 232 1263 200 1293 200" fill="none" stroke="hsl(45, 50%, 28%)" stroke-width="2.5"/>
<path d="M1060 1740C1090 1740 1090 1520 1090 1490" fill="none" stroke="hsl(255, 50%, 28%)" stroke-width="2.5"/>
<path d="M1090 1470C1090 1064 713 658 1119 658" fill="none" stroke="hsl(255, 50%, 28%)" stroke-width="2.5"/>
<path d="M1261 248C1291 248 1263 280 1293 280" fill="none" stroke="hsl(255, 50%, 28%)" stroke-width="2.5"/>
<path d="M1060 2140C1090 2140 1090 1920 1090 1890" fill="none" stroke="hsl(120, 50%, 28%)" stroke-width="2.5"/>
<path d="M1090 1870C1090 1272 521 674 1119 674" fill="none" stroke="hsl(120, 50%, 28%)" stroke-width="2.5"/>
<path d="M1261 264C1291 264 1263 360 1293 360" fill="none" stroke="hsl(120, 50%, 28%)" stroke-width="2.5"/>
<path d="M1060 2540C1090 2540 1090 2320 1090 2290" fill="none" stroke="hsl(315, 50%, 28%)" stroke-width="2.5"/>
<path d="M1090 2270C1090 1480 329 690 1119 690" fill="none" stroke="hsl(315, 50%, 28%)" stroke-width="2.5"/>
<path d="M1261 280C1291 280 1263 440 1293 440" fill="none" stroke="hsl(315, 50%, 28%)" stroke-width="2.5"/>
<path d="M1060 2940C1090 2940 1090 2720 1090 2690" fill="none" stroke="hsl(165, 50%, 28%)" stroke-width="2.5"/>
<path d="M1090 2670C1090 1688 137 706 1119 706" fill="none" stroke="hsl(165, 50%, 28%)" stroke-width="2.5"/>
<path d="M1261 296C1291 296 1263 520 1293 520" fill="none" stroke="hsl(165, 50%, 28%)" stroke-width="2.5"/>
<path d="M181 1056 L186.48771764029973 1056.0810325040602 L191.65595280432416 1056.3186183335902 L196.52643872729772 1056.7041810202352 L201.12036532044428 1057.2286046075938 L205.45662438934897 1057.8817754868653 L209.55178278864946 1058.6520809498704 L213.42033879301627 1059.5259630119565 L217.0752944050043 1060.487660144008 L220.52900176988962 1061.519269579094 L223.79416340833427 1062.601212927956 L226.88481981699604 1063.713093688117 L229.81717076230493 1064.8348276883316 L232.61014499059394 1065.9478478174894 L235.285722069142 1067.0361602058733 L237.86907356202167 1068.0870606454773 L240.38859933373345 1069.0913874550959 L242.87589124556663 1070.0432686152305 L245.3655919797629 1070.9394053477815 L247.89507319846186 1071.7780159347794 L250.50386583357576 1072.5576309894893 L253.23283879301704 1073.2759630119565 L256.1232113600788 1073.9290488799 L259.215552960779 1074.5107842332216 L262.54893674901564 1075.0128611673601 L266.16036729872565 1075.4250265012845 L270.0845242328937 1075.7355279545814 L274.3537890688717 1075.9316155944393 L279 1076" fill="none" stroke="hsl(135, 50%, 28%)" stroke-width="4.8" stroke-linecap="butt" stroke-linejoin="miter" stroke-miterlimit="2"/>
<path d="M181 1060 L186.36750239613247 1060.079225632846 L191.40731322757847 1060.3108831495656 L196.14260929500858 1060.6857228028753 L200.59617931052145 1061.194109496886 L204.78917048218804 1061.825695526853 L208.74106933883124 1062.5690624027604 L212.46988485215448 1063.4114021513974 L215.9925572280643 1064.3383328392226 L219.32556248869668 1065.333943077112 L222.4856269243204 1066.3811246028506 L225.49043252234412 1067.4621847876388 L228.359203605728 1068.5596540964134 L231.11311376879158 1069.6571466084943 L233.77551576367287 1070.7401144327666 L236.37204234021956 1071.7963594364821 L238.93063217715655 1072.8162138631776 L241.48150395091494 1073.7923597147524 L244.057055495749 1074.719317022676 L246.6916339172687 1075.5926894327974 L249.42112865663574 1076.408303684704 L252.28238485215505 1077.1614021513976 L255.3124979102604 1077.8460303327897 L258.54809905361765 1078.4547042732092 L262.0247507390928 1078.9783660566525 L265.7765378664367 1079.4065682839246 L269.83588465614855 1079.7277927705568 L274.2335738247043 1079.929808723225 L279 1080" fill="none" stroke="hsl(0, 50%, 28%)" stroke-width="4.8" stroke-linecap="butt" stroke-linejoin="miter" stroke-miterlimit="2"/>
<path d="M181 1064 L186.2472871519652 1064.0774187616319 L191.1586736508328 1064.3031479655413 L195.75877986271945 1064.6672645855153 L200.0719933005986 1065.1596143861784 L204.1217165750271 1065.7696155668405 L207.93035588901301 1066.4860438556502 L211.5194309112927 1067.2968412908385 L214.90982005112429 1068.1890055344372 L218.12212320750373 1069.1486165751303 L221.17709044030653 1070.1610362777453 L224.0960452276922 1071.2112758871606 L226.90123644915107 1072.2844805044951 L229.61608254698925 1073.3664453994988 L232.26530945820372 1074.44406865966 L234.87501111841743 1075.505658227487 L237.47266502057963 1076.5410402712594 L240.08711665626325 1077.5414508142742 L242.7485190117351 1078.4992286975707 L245.4881946360755 1079.4073629308155 L248.33839147969573 1080.2589763799185 L251.33193091129303 1081.0468412908385 L254.50178446044194 1081.7630117856797 L257.8806451464563 1082.3986243131967 L261.5005647291699 1082.9438709459448 L265.3927084341477 1083.3881100665646 L269.58724507940343 1083.7200575865322 L274.11335858053684 1083.928001852011 L279 1084" fill="none" stroke="hsl(285, 50%, 28%)" stroke-width="4.8" stroke-linecap="butt" stroke-linejoin="miter" stroke-miterlimit="2"/>
<path d="M181 1068 L186.12707190779793 1068.0756118904176 L190.91003407408715 1068.2954127815167 L195.37495043043032 1068.6488063681554 L199.54780729067573 1069.1251192754708 L203.45426266786617 1069.7135356068281 L207.1196424391948 1070.4030253085402 L210.5689769704309 1071.1822804302794 L213.82708287418427 1072.039678229652 L216.9186839263108 1072.9632900731483 L219.86855395629263 1073.9409479526398 L222.70165793304028 1074.9603669866824 L225.44326929257414 1076.009306912577 L228.1190513251869 1077.0757441905037 L230.75510315273456 1078.1480228865532 L233.37797989661533 1079.2149570184918 L236.01469786400273 1080.2658666793411 L238.69272936161155 1081.290541913796 L241.4399825277212 1082.2791403724652 L244.28475535488232 1083.2220364288335 L247.25565430275572 1084.1096490751333 L250.381476970431 1084.9322804302794 L253.6910710106235 1085.6799932385695 L257.21319123929493 1086.3425443531842 L260.97637871924707 1086.9093758352371 L265.0088790018588 1087.3696518492047 L269.3386055026583 1087.7123224025079 L273.9931433363694 1087.9261949807967 L279 1088" fill="none" stroke="hsl(270, 50%, 28%)" stroke-width="4.8" stroke-linecap="butt" stroke-linejoin="miter" stroke-miterlimit="2"/>
<path d="M181 1072 L186.00685666363069 1072.0738050192033 L190.66139449734146 1072.2876775974921 L194.99112099814118 1072.6303481507953 L199.02362128075288 1073.090624164763 L202.7868087607052 1073.6574556468156 L206.3089289893766 1074.3200067614302 L209.6185230295691 1075.0677195697206 L212.74434569724428 1075.8903509248667 L215.71524464511782 1076.7779635711665 L218.56001747227876 1077.7208596275345 L221.30727063838833 1078.709458086204 L223.9853021359972 1079.7341333206587 L226.62202010338456 1080.7850429815082 L229.24489684726544 1081.8519771134468 L231.88094867481323 1082.9242558094963 L234.55673070742583 1083.9906930874229 L237.29834206695983 1085.039633013318 L240.13144604370734 1086.05905204736 L243.08131607368912 1087.0367099268517 L246.17291712581573 1087.960321770348 L249.431023029569 1088.8177195697206 L252.88035756080507 1089.5969746914595 L256.5457373321336 1090.2864643931716 L260.45219270932427 1090.8748807245295 L264.62504956956985 1091.351193631845 L269.08996592591313 1091.7045872184833 L273.872928092202 1091.9243881095824 L279 1092" fill="none" stroke="hsl(195, 50%, 28%)" stroke-width="4.8" stroke-linecap="butt" stroke-linejoin="miter" stroke-miterlimit="2"/>
<path d="M181 1076 L185.88664141946342 1076.071998147989 L190.4127549205958 1076.2799424134676 L194.60729156585205 1076.6118899334354 L198.49943527083002 1077.0561290540554 L202.11935485354428 1077.6013756868033 L205.49821553955837 1078.2369882143203 L208.6680690887073 1078.9531587091615 L211.66160852030427 1079.7410236200815 L214.51180536392488 1080.5926370691845 L217.25148098826486 1081.500771302429 L219.9128833437364 1082.4585491857258 L222.52733497942026 1083.4589597287404 L225.1249888815822 1084.494341772513 L227.73469054179628 1085.55593134034 L230.38391745301112 1086.6335546005012 L233.09876355084893 1087.7155194955046 L235.90395477230814 1088.7887241128399 L238.82290955969344 1089.8389637222544 L241.87787679249595 1090.8513834248697 L245.09017994887571 1091.8109944655628 L248.48056908870697 1092.7031587091615 L252.06964411098662 1093.5139561443493 L255.87828342497224 1094.230384433159 L259.9280066994014 1094.8403856138218 L264.24122013728095 1095.3327354144851 L268.841326349168 1095.696852034459 L273.7527128480346 1095.9225812383681 L279 1096" fill="none" stroke="hsl(60, 50%, 28%)" stroke-width="4.8" stroke-linecap="butt" stroke-linejoin="miter" stroke-miterlimit="2"/>
<path d="M181 1080 L185.76642617529615 1080.070191276775 L190.16411534385014 1080.2722072294432 L194.22346213356292 1080.5934317160754 L197.97524926090716 1081.0216339433478 L201.45190094638335 1081.5452957267908 L204.68750208974015 1082.15396966721 L207.71761514784552 1082.8385978486026 L210.57887134336426 1083.591696315296 L213.30836608273194 1084.4073105672028 L215.942944504251 1085.2806829773237 L218.5184960490845 1086.2076402852476 L221.06936782284333 1087.1837861368222 L223.62795765977987 1088.2036405635176 L226.22448423632713 1089.2598855672334 L228.886886231209 1090.342853391506 L231.640796394272 1091.4403459035864 L234.50956747765645 1092.5378152123617 L237.51437307567954 1093.6188753971492 L240.67443751130276 1094.6660569228877 L244.0074427719357 1095.6616671607774 L247.53011514784495 1096.5885978486024 L251.25893066116816 1097.4309375972393 L255.21082951781088 1098.1743044731465 L259.40382068947855 1098.8058905031141 L263.857390704992 1099.3142771971252 L268.5926867724229 1099.6891168504344 L273.63249760386714 1099.920774367154 L279 1100" fill="none" stroke="hsl(345, 50%, 28%)" stroke-width="4.8" stroke-linecap="butt" stroke-linejoin="miter" stroke-miterlimit="2"/>
<path d="M181 1084 L185.64621093112888 1084.0683844055607 L189.91547576710445 1084.2644720454186 L193.83963270127379 1084.5749734987155 L197.45106325098433 1084.98713883264 L200.7844470392224 1085.4892157667784 L203.87678863992193 1086.0709511201 L206.76716120698373 1086.7240369880435 L209.49613416642424 1087.4423690105107 L212.104926801539 1088.2219840652208 L214.63440802023712 1089.0605946522182 L217.12410875443257 1089.9567313847695 L219.6114006662664 1090.908612544904 L222.1309264379775 1091.9129393545225 L224.714277930858 1092.9638397941267 L227.3898550094069 1094.0521521825108 L230.1828292376951 1095.1651723116681 L233.11518018300475 1096.2869063118835 L236.20583659166564 1097.3987870720437 L239.4709982301096 1098.4807304209057 L242.9247055949957 1099.512339855992 L246.57966120698296 1100.4740369880435 L250.44821721134974 1101.3479190501291 L254.54337561064955 1102.1182245131342 L258.8796346795557 1102.7713953924065 L263.473561272703 1103.2958189797653 L268.3440471956777 1103.6813816664098 L273.5122823596997 1103.9189674959398 L279 1104" fill="none" stroke="hsl(330, 50%, 28%)" stroke-width="4.8" stroke-linecap="butt" stroke-linejoin="miter" stroke-miterlimit="2"/>
<path d="M1141 636 L1138.720984360678 636.5505666691329 L1139.764025682102 635.3906890042779 L1142.6912296348783 630.5676867570867 L1146.1514980693426 622.4417374980819 L1149.6682090209888 611.5698525080883 L1153.0876310688584 598.3773355102783 L1156.3640749217614 583.1996135439916 L1159.491752126227 566.3241679564995 L1162.4813837192046 548.0128253953873 L1165.351239069547 528.5130297712124 L1168.1233462954262 508.0636987758288 L1170.8217548337898 486.8983838804586 L1173.4716902633402 465.24702222423286 L1176.0991327221752 443.33690381387584 L1178.7306188347686 421.39315925047185 L1181.3931834052187 399.6389086617998 L1184.1144177239976 378.29511276999824 L1186.9226676409758 357.5800851647985 L1189.8474551477757 337.70852510384196 L1192.9203235547986 318.889765624138 L1196.1765749217614 301.3246135439917 L1199.659059640287 285.1994929446805 L1203.4271375924177 270.6751732077968 L1207.5800694979139 257.86447802286284 L1212.3251582063065 246.7903543955711 L1218.192597110673 237.34404177395757 L1226.5870557892495 229.61361331636297 L1239 226" fill="none" stroke="hsl(240, 50%, 28%)" stroke-width="4.8" stroke-linecap="butt" stroke-linejoin="miter" stroke-miterlimit="2"/>
<path d="M1141 640 L1140.8198357678311 639.955683814062 L1142.9130795688484 637.8571560359585 L1146.2603170861375 632.3736808781357 L1149.9041312740203 623.8265638522327 L1153.511730933359 612.6777059772476 L1156.9809609675517 599.2949314452841 L1160.2868392298296 583.981866817137 L1163.4328841717947 567.0078917306942 L1166.4344067382074 548.6240610383545 L1169.3121095394724 529.071156208925 L1172.089380006937 508.58386855499646 L1174.7910493710742 487.3930563744217 L1177.4427889636104 465.7269962992751 L1180.0708090872681 443.81207415276845 L1182.7017175350388 421.87313332551406 L1185.3624779425031 400.13358115576284 L1188.0804514355086 378.8152825491658 L1190.883538110901 358.1382116025112 L1193.8004781667787 338.31976074680927 L1196.8614556003663 319.57348939833264 L1200.0993392298296 302.1068668171369 L1203.5523895389806 286.1170888796864 L1207.2706595047882 271.783026676956 L1211.3327027025916 259.24930437701363 L1215.8942456575658 248.5963485166199 L1221.3416509974195 239.81050880563816 L1228.6859071964027 233.0187304612922 L1239 230" fill="none" stroke="hsl(30, 50%, 28%)" stroke-width="4.8" stroke-linecap="butt" stroke-linejoin="miter" stroke-miterlimit="2"/>
<path d="M1141 644 L1142.9186871749844 643.3608009589913 L1146.0621334555947 640.3236230676392 L1149.8294045373968 634.1796749991847 L1153.6567644786978 625.2113902063834 L1157.3552528457296 613.7855594464069 L1160.8742908662452 600.21252738029 L1164.2096035378977 584.7641200902822 L1167.3740162173626 567.6916155048888 L1170.3874297572102 549.2352966813218 L1173.2729800093975 529.6292826466378 L1176.0554137184479 509.10403833416404 L1178.7603439083587 487.8877288683847 L1181.4138876638806 466.2069703743172 L1184.0424854523608 444.28724449166106 L1186.672816235309 422.3531074005562 L1189.3317724797876 400.62825364972593 L1192.0464851470194 379.33545232833325 L1194.8444085808262 358.6963380402239 L1197.7535011857815 338.9309963897765 L1200.8025876459342 320.2572131725273 L1204.0221035378977 302.8891200902822 L1207.445719437674 287.0346848146923 L1211.1141814171585 272.8908801461153 L1215.0853359072694 260.6341307311645 L1219.4633331088253 250.40234263766874 L1224.490704884166 242.27697583731876 L1230.784758603556 236.4238476062214 L1239 234" fill="none" stroke="hsl(75, 50%, 28%)" stroke-width="4.8" stroke-linecap="butt" stroke-linejoin="miter" stroke-miterlimit="2"/>
<path d="M1141 648 L1145.0175385821378 646.7659181039204 L1149.211187342341 642.79009009932 L1153.3984919886561 635.9856691202336 L1157.4093976833756 626.5962165605341 L1161.1987747581002 614.8934129155662 L1164.7676207649388 601.1301233152958 L1168.132367845966 585.5463733634274 L1171.3151482629303 568.3753392790834 L1174.340452776213 549.846532324289 L1177.2338504793229 530.1874090843505 L1180.0214474299587 509.6242081133317 L1182.729638445643 488.3824013623478 L1185.3849863641508 466.68694444935943 L1188.0141618174537 444.76241483055367 L1190.6439149355792 422.8330814755984 L1193.301067017072 401.122926143689 L1196.0125188585303 379.8556221075008 L1198.8052790507516 359.2544644779366 L1201.7065242047843 339.54223203274375 L1204.7437196915018 320.94093694672193 L1207.944867845966 303.6713733634274 L1211.3390493363675 287.9522807496982 L1214.957703329529 273.9987336152746 L1218.837969111947 262.01895708531526 L1223.0324205600846 252.20833675871756 L1227.6397587709123 244.74344286899935 L1232.8836100107092 239.82896475115058 L1239 238" fill="none" stroke="hsl(45, 50%, 28%)" stroke-width="4.8" stroke-linecap="butt" stroke-linejoin="miter" stroke-miterlimit="2"/>
<path d="M1141 652 L1147.116389989291 650.1710352488495 L1152.3602412290875 645.2565571310006 L1156.9675794399154 637.7916632412827 L1161.1620308880533 627.981042914685 L1165.0422966704705 616.0012663847253 L1168.6609506636323 602.0477192503017 L1172.055132154034 586.3286266365726 L1175.2562803084982 569.0590630532779 L1178.293475795216 550.4577679672564 L1181.1947209492482 530.7455355220632 L1183.9874811414697 510.14437789249934 L1186.6989329829275 488.8770738563109 L1189.3560850644208 467.1669185244016 L1191.9858381825463 445.23758516944633 L1194.6150136358492 423.31305555064057 L1197.2703615543564 401.6175986376521 L1199.9785525700413 380.3757918866683 L1202.766149520677 359.81259091564937 L1205.6595472237873 340.153467675711 L1208.6848517370697 321.62466072091655 L1211.867632154034 304.4536266365726 L1215.232379235061 288.86987668470414 L1218.8012252418994 275.1065870844339 L1222.5906023166247 263.4037834394661 L1226.6015080113439 254.01433087976636 L1230.7888126576588 247.20990990067992 L1234.9824614178624 243.23408189607977 L1239 242" fill="none" stroke="hsl(255, 50%, 28%)" stroke-width="4.8" stroke-linecap="butt" stroke-linejoin="miter" stroke-miterlimit="2"/>
<path d="M1141 656 L1149.2152413964445 653.5761523937787 L1155.5092951158338 647.7230241626813 L1160.5366668911747 639.5976573623316 L1164.914664092731 629.3658692688357 L1168.885818582841 617.1091198538846 L1172.5542805623259 602.9653151853075 L1175.9778964621023 587.1108799097178 L1179.1974123540658 569.7427868274725 L1182.2464988142187 551.0690036102236 L1185.1555914191736 531.3036619597759 L1187.9535148529806 510.664547671667 L1190.668227520212 489.371746350274 L1193.327183764691 467.6468925994438 L1195.9575145476392 445.71275550833894 L1198.5861123361194 423.7930296256828 L1201.2396560916409 402.1122711316152 L1203.9445862815521 380.89596166583584 L1206.7270199906022 360.37071735336207 L1209.61257024279 340.76470331867824 L1212.6259837826374 322.30838449511117 L1215.7903964621023 305.2358799097178 L1219.1257091337545 289.78747261971006 L1222.64474715427 276.2144405535932 L1226.3432355213022 264.7886097936169 L1230.1705954626032 255.8203250008152 L1233.937866544405 249.6763769323605 L1237.0813128250156 246.63919904100896 L1239 246" fill="none" stroke="hsl(120, 50%, 28%)" stroke-width="4.8" stroke-linecap="butt" stroke-linejoin="miter" stroke-miterlimit="2"/>
<path d="M1141 660 L1151.3140928035978 656.9812695387079 L1158.65834900258 650.1894911943621 L1164.105754342434 641.4036514833806 L1168.6672972974086 630.7506956229864 L1172.7293404952115 618.2169733230439 L1176.4476104610194 603.8829111203135 L1179.9006607701704 587.893133182863 L1183.1385443996337 570.4265106016671 L1186.1995218332215 551.6802392531908 L1189.1164618890987 531.8617883974887 L1191.9195485644914 511.18471745083457 L1194.6375220574964 489.86641884423705 L1197.2982824649612 468.12686667448594 L1199.9291909127319 446.18792584723155 L1202.5572110363896 424.2730037007249 L1205.2089506289253 402.6069436255783 L1207.910619993063 381.4161314450033 L1210.6878904605273 360.92884379107477 L1213.5655932617929 341.3759389616455 L1216.5671158282053 322.99210826930585 L1219.7131607701704 306.0181331828631 L1223.0190390324478 290.705068554716 L1226.4882690666402 277.3222940227525 L1230.09586872598 266.17343614776775 L1233.7396829138627 257.626319121864 L1237.0869204311516 252.1428439640411 L1239.1801642321689 250.04431618593816 L1239 250" fill="none" stroke="hsl(315, 50%, 28%)" stroke-width="4.8" stroke-linecap="butt" stroke-linejoin="miter" stroke-miterlimit="2"/>
<path d="M1141 664 L1153.412944210751 660.386386683637 L1161.8074028893263 652.6559582260427 L1167.6748417936933 643.2096456044296 L1172.4199305020863 632.1355219771372 L1176.5728624075819 619.3248267922032 L1180.3409403597127 604.8005070553193 L1183.8234250782386 588.6753864560084 L1187.0796764452014 571.1102343758618 L1190.1525448522243 552.2914748961581 L1193.077332359024 532.4199148352013 L1195.8855822760022 511.7048872300022 L1198.6068165947809 490.36109133820014 L1201.2693811652314 468.60684074952815 L1203.9008672778248 446.66309618612416 L1206.5283097366598 424.75297777576714 L1209.1782451662098 403.10161611954135 L1211.876653704574 381.93630122417085 L1214.6487609304527 361.48697022878747 L1217.5186162807959 341.9871746046128 L1220.508247873773 323.67583204350046 L1223.6359250782386 306.8003864560083 L1226.9123689311414 291.62266448972184 L1230.3317909790107 278.4301474919117 L1233.8485019306577 267.55826250191853 L1237.308770365122 259.43231324291287 L1240.2359743178981 254.6093109957217 L1241.279015639322 253.44943333086738 L1239 254" fill="none" stroke="hsl(165, 50%, 28%)" stroke-width="4.8" stroke-linecap="butt" stroke-linejoin="miter" stroke-miterlimit="2"/>
<g transform="matrix(1 0 0 1 0 0)"><path d="M6 0H114A6 6 0 0 1 120 6V114A6 6 0 0 1 114 120H6A6 6 0 0 1 0 114V6A6 6 0 0 1 6 0Z" fill="#fffaf0" stroke="#073642" stroke-width="2.5"/><path d="M42 39H78A21 21 0 0 1 99 60V60A21 21 0 0 1 78 81H42A21 21 0 0 1 21 60V60A21 21 0 0 1 42 39Z" fill="#e2dcc8"/><path d="M61.8 60A19.8 19.8 0 1 1 22.2 60A19.8 19.8 0 1 1 61.8 60Z" fill="hsl(135, 95%, 47%)"/><path d="M42 39H78A21 21 0 0 1 99 60V60A21 21 0 0 1 78 81H42A21 21 0 0 1 21 60V60A21 21 0 0 1 42 39Z" fill="none" stroke="#073642" stroke-width="1.8"/><path d="M62.2 60A20.2 20.2 0 1 1 21.8 60A20.2 20.2 0 1 1 62.2 60Z" fill="#fffaf0" stroke="#073642" stroke-width="1.6"/></g>
<g transform="matrix(1 0 0 1 0 180)"><path d="M6 0H114A6 6 0 0 1 120 6V114A6 6 0 0 1 114 120H6A6 6 0 0 1 0 114V6A6 6 0 0 1 6 0Z" fill="#fffaf0" stroke="#073642" stroke-width="2.5"/><path d="M42 39H78A21 21 0 0 1 99 60V60A21 21 0 0 1 78 81H42A21 21 0 0 1 21 60V60A21 21 0 0 1 42 39Z" fill="#e2dcc8"/><path d="M61.8 60A19.8 19.8 0 1 1 22.2 60A19.8 19.8 0 1 1 61.8 60Z" fill="hsl(0, 95%, 47%)"/><path d="M42 39H78A21 21 0 0 1 99 60V60A21 21 0 0 1 78 81H42A21 21 0 0 1 21 60V60A21 21 0 0 1 42 39Z" fill="none" stroke="#073642" stroke-width="1.8"/><path d="M62.2 60A20.2 20.2 0 1 1 21.8 60A20.2 20.2 0 1 1 62.2 60Z" fill="#fffaf0" stroke="#073642" stroke-width="1.6"/></g>
<g transform="matrix(1 0 0 1 0 360)"><path d="M6 0H114A6 6 0 0 1 120 6V114A6 6 0 0 1 114 120H6A6 6 0 0 1 0 114V6A6 6 0 0 1 6 0Z" fill="#fffaf0" stroke="#073642" stroke-width="2.5"/><path d="M42 39H78A21 21 0 0 1 99 60V60A21 21 0 0 1 78 81H42A21 21 0 0 1 21 60V60A21 21 0 0 1 42 39Z" fill="#e2dcc8"/><path d="M61.8 60A19.8 19.8 0 1 1 22.2 60A19.8 19.8 0 1 1 61.8 60Z" fill="hsl(285, 95%, 47%)"/><path d="M42 39H78A21 21 0 0 1 99 60V60A21 21 0 0 1 78 81H42A21 21 0 0 1 21 60V60A21 21 0 0 1 42 39Z" fill="none" stroke="#073642" stroke-width="1.8"/><path d="M62.2 60A20.2 20.2 0 1 1 21.8 60A20.2 20.2 0 1 1 62.2 60Z" fill="#fffaf0" stroke="#073642" stroke-width="1.6"/></g>
<g transform="matrix(1 0 0 1 0 540)"><path d="M6 0H114A6 6 0 0 1 120 6V114A6 6 0 0 1 114 120H6A6 6 0 0 1 0 114V6A6 6 0 0 1 6 0Z" fill="#fffaf0" stroke="#073642" stroke-width="2.5"/><path d="M42 39H78A21 21 0 0 1 99 60V60A21 21 0 0 1 78 81H42A21 21 0 0 1 21 60V60A21 21 0 0 1 42 39Z" fill="#e2dcc8"/><path d="M61.8 60A19.8 19.8 0 1 1 22.2 60A19.8 19.8 0 1 1 61.8 60Z" fill="hsl(270, 95%, 47%)"/><path d="M42 39H78A21 21 0 0 1 99 60V60A21 21 0 0 1 78 81H42A21 21 0 0 1 21 60V60A21 21 0 0 1 42 39Z" fill="none" stroke="#073642" stroke-width="1.8"/><path d="M62.2 60A20.2 20.2 0 1 1 21.8 60A20.2 20.2 0 1 1 62.2 60Z" fill="#fffaf0" stroke="#073642" stroke-width="1.6"/></g>
<g transform="matrix(1 0 0 1 0 720)"><path d="M6 0H114A6 6 0 0 1 120 6V114A6 6 0 0 1 114 120H6A6 6 0 0 1 0 114V6A6 6 0 0 1 6 0Z" fill="#fffaf0" stroke="#073642" stroke-width="2.5"/><path d="M42 39H78A21 21 0 0 1 99 60V60A21 21 0 0 1 78 81H42A21 21 0 0 1 21 60V60A21 21 0 0 1 42 39Z" fill="#e2dcc8"/><path d="M61.8 60A19.8 19.8 0 1 1 22.2 60A19.8 19.8 0 1 1 61.8 60Z" fill="hsl(195, 95%, 47%)"/><path d="M42 39H78A21 21 0 0 1 99 60V60A21 21 0 0 1 78 81H42A21 21 0 0 1 21 60V60A21 21 0 0 1 42 39Z" fill="none" stroke="#073642" stroke-width="1.8"/><path d="M62.2 60A20.2 20.2 0 1 1 21.8 60A20.2 20.2 0 1 1 62.2 60Z" fill="#fffaf0" stroke="#073642" stroke-width="1.6"/></g>
<g transform="matrix(1 0 0 1 0 900)"><path d="M6 0H114A6 6 0 0 1 120 6V114A6 6 0 0 1 114 120H6A6 6 0 0 1 0 114V6A6 6 0 0 1 6 0Z" fill="#fffaf0" stroke="#073642" stroke-width="2.5"/><path d="M42 39H78A21 21 0 0 1 99 60V60A21 21 0 0 1 78 81H42A21 21 0 0 1 21 60V60A21 21 0 0 1 42 39Z" fill="#e2dcc8"/><path d="M61.8 60A19.8 19.8 0 1 1 22.2 60A19.8 19.8 0 1 1 61.8 60Z" fill="hsl(60, 95%, 47%)"/><path d="M42 39H78A21 21 0 0 1 99 60V60A21 21 0 0 1 78 81H42A21 21 0 0 1 21 60V60A21 21 0 0 1 42 39Z" fill="none" stroke="#073642" stroke-width="1.8"/><path d="M62.2 60A20.2 20.2 0 1 1 21.8 60A20.2 20.2 0 1 1 62.2 60Z" fill="#fffaf0" stroke="#073642" stroke-width="1.6"/></g>
<g transform="matrix(1 0 0 1 0 1080)"><path d="M6 0H114A6 6 0 0 1 120 6V114A6 6 0 0 1 114 120H6A6 6 0 0 1 0 114V6A6 6 0 0 1 6 0Z" fill="#fffaf0" stroke="#073642" stroke-width="2.5"/><path d="M42 39H78A21 21 0 0 1 99 60V60A21 21 0 0 1 78 81H42A21 21 0 0 1 21 60V60A21 21 0 0 1 42 39Z" fill="#e2dcc8"/><path d="M61.8 60A19.8 19.8 0 1 1 22.2 60A19.8 19.8 0 1 1 61.8 60Z" fill="hsl(345, 95%, 47%)"/><path d="M42 39H78A21 21 0 0 1 99 60V60A21 21 0 0 1 78 81H42A21 21 0 0 1 21 60V60A21 21 0 0 1 42 39Z" fill="none" stroke="#073642" stroke-width="1.8"/><path d="M62.2 60A20.2 20.2 0 1 1 21.8 60A20.2 20.2 0 1 1 62.2 60Z" fill="#fffaf0" stroke="#073642" stroke-width="1.6"/></g>
<g transform="matrix(1 0 0 1 0 1260)"><path d="M6 0H114A6 6 0 0 1 120 6V114A6 6 0 0 1 114 120H6A6 6 0 0 1 0 114V6A6 6 0 0 1 6 0Z" fill="#fffaf0" stroke="#073642" stroke-width="2.5"/><path d="M42 39H78A21 21 0 0 1 99 60V60A21 21 0 0 1 78 81H42A21 21 0 0 1 21 60V60A21 21 0 0 1 42 39Z" fill="#e2dcc8"/><path d="M61.8 60A19.8 19.8 0 1 1 22.2 60A19.8 19.8 0 1 1 61.8 60Z" fill="hsl(330, 95%, 47%)"/><path d="M42 39H78A21 21 0 0 1 99 60V60A21 21 0 0 1 78 81H42A21 21 0 0 1 21 60V60A21 21 0 0 1 42 39Z" fill="none" stroke="#073642" stroke-width="1.8"/><path d="M62.2 60A20.2 20.2 0 1 1 21.8 60A20.2 20.2 0 1 1 62.2 60Z" fill="#fffaf0" stroke="#073642" stroke-width="1.6"/></g>
<g transform="matrix(1 0 0 1 0 1530)"><path d="M6 0H114A6 6 0 0 1 120 6V114A6 6 0 0 1 114 120H6A6 6 0 0 1 0 114V6A6 6 0 0 1 6 0Z" fill="#fffaf0" stroke="#073642" stroke-width="2.5"/><path d="M60 21H60A39 39 0 0 1 99 60V60A39 39 0 0 1 60 99H60A39 39 0 0 1 21 60V60A39 39 0 0 1 60 21Z" fill="#e2dcc8" stroke="#073642" stroke-width="1.8"/><path d="M60 30H60A30 30 0 0 1 90 60V60A30 30 0 0 1 60 90H60A30 30 0 0 1 30 60V60A30 30 0 0 1 60 30Z" fill="#fffaf0" stroke="#073642" stroke-width="1.8"/></g>
<g transform="matrix(1 0 0 1 330 -60)"><path d="M0 0L40 20L0 40Z" fill="#fffaf0" stroke="#073642" stroke-width="2.5"/></g>
<g transform="matrix(1 0 0 1 570 120)"><path d="M0 0L40 20L0 40Z" fill="#fffaf0" stroke="#073642" stroke-width="2.5"/><path d="M50 20A5 5 0 1 1 40 20A5 5 0 1 1 50 20Z" fill="#fffaf0" stroke="#073642" stroke-width="2.5"/></g>
<g transform="matrix(1 0 0 1 770 -60)"><path d="M0 0H30A20 20 0 0 1 30 40H0Z" fill="#fffaf0" stroke="#073642" stroke-width="2.5"/></g>
<g transform="matrix(1 0 0 1 770 120)"><path d="M0 0H30A20 20 0 0 1 30 40H0Z" fill="#fffaf0" stroke="#073642" stroke-width="2.5"/></g>
<g transform="matrix(1 0 0 1 990 -60)"><path d="M0 0Q12 20 0 40C19.2 40 49.2 33.2 60 20C49.2 6.8 19.2 0 0 0Z" fill="#fffaf0" stroke="#073642" stroke-width="2.5"/><path d="M70 20A5 5 0 1 1 60 20A5 5 0 1 1 70 20Z" fill="#fffaf0" stroke="#073642" stroke-width="2.5"/></g>
<g transform="matrix(1 0 0 1 990 120)"><path d="M0 0Q12 20 0 40C19.2 40 49.2 33.2 60 20C49.2 6.8 19.2 0 0 0Z" fill="#fffaf0" stroke="#073642" stroke-width="2.5"/><path d="M70 20A5 5 0 1 1 60 20A5 5 0 1 1 70 20Z" fill="#fffaf0" stroke="#073642" stroke-width="2.5"/></g>
<g transform="matrix(1 0 0 1 570 520)"><path d="M0 0L40 20L0 40Z" fill="#fffaf0" stroke="#073642" stroke-width="2.5"/><path d="M50 20A5 5 0 1 1 40 20A5 5 0 1 1 50 20Z" fill="#fffaf0" stroke="#073642" stroke-width="2.5"/></g>
<g transform="matrix(1 0 0 1 770 340)"><path d="M0 0H30A20 20 0 0 1 30 40H0Z" fill="#fffaf0" stroke="#073642" stroke-width="2.5"/></g>
<g transform="matrix(1 0 0 1 770 520)"><path d="M0 0H30A20 20 0 0 1 30 40H0Z" fill="#fffaf0" stroke="#073642" stroke-width="2.5"/></g>
<g transform="matrix(1 0 0 1 990 340)"><path d="M0 0Q12 20 0 40C19.2 40 49.2 33.2 60 20C49.2 6.8 19.2 0 0 0Z" fill="#fffaf0" stroke="#073642" stroke-width="2.5"/><path d="M70 20A5 5 0 1 1 60 20A5 5 0 1 1 70 20Z" fill="#fffaf0" stroke="#073642" stroke-width="2.5"/></g>
<g transform="matrix(1 0 0 1 990 520)"><path d="M0 0Q12 20 0 40C19.2 40 49.2 33.2 60 20C49.2 6.8 19.2 0 0 0Z" fill="#fffaf0" stroke="#073642" stroke-width="2.5"/><path d="M70 20A5 5 0 1 1 60 20A5 5 0 1 1 70 20Z" fill="#fffaf0" stroke="#073642" stroke-width="2.5"/></g>
<g transform="matrix(1 0 0 1 570 920)"><path d="M0 0L40 20L0 40Z" fill="#fffaf0" stroke="#073642" stroke-width="2.5"/><path d="M50 20A5 5 0 1 1 40 20A5 5 0 1 1 50 20Z" fill="#fffaf0" stroke="#073642" stroke-width="2.5"/></g>
<g transform="matrix(1 0 0 1 770 740)"><path d="M0 0H30A20 20 0 0 1 30 40H0Z" fill="#fffaf0" stroke="#073642" stroke-width="2.5"/></g>
<g transform="matrix(1 0 0 1 770 920)"><path d="M0 0H30A20 20 0 0 1 30 40H0Z" fill="#fffaf0" stroke="#073642" stroke-width="2.5"/></g>
<g transform="matrix(1 0 0 1 990 740)"><path d="M0 0Q12 20 0 40C19.2 40 49.2 33.2 60 20C49.2 6.8 19.2 0 0 0Z" fill="#fffaf0" stroke="#073642" stroke-width="2.5"/><path d="M70 20A5 5 0 1 1 60 20A5 5 0 1 1 70 20Z" fill="#fffaf0" stroke="#073642" stroke-width="2.5"/></g>
<g transform="matrix(1 0 0 1 990 920)"><path d="M0 0Q12 20 0 40C19.2 40 49.2 33.2 60 20C49.2 6.8 19.2 0 0 0Z" fill="#fffaf0" stroke="#073642" stroke-width="2.5"/><path d="M70 20A5 5 0 1 1 60 20A5 5 0 1 1 70 20Z" fill="#fffaf0" stroke="#073642" stroke-width="2.5"/></g>
<g transform="matrix(1 0 0 1 570 1320)"><path d="M0 0L40 20L0 40Z" fill="#fffaf0" stroke="#073642" stroke-width="2.5"/><path d="M50 20A5 5 0 1 1 40 20A5 5 0 1 1 50 20Z" fill="#fffaf0" stroke="#073642" stroke-width="2.5"/></g>
<g transform="matrix(1 0 0 1 770 1140)"><path d="M0 0H30A20 20 0 0 1 30 40H0Z" fill="#fffaf0" stroke="#073642" stroke-width="2.5"/></g>
<g transform="matrix(1 0 0 1 770 1320)"><path d="M0 0H30A20 20 0 0 1 30 40H0Z" fill="#fffaf0" stroke="#073642" stroke-width="2.5"/></g>
<g transform="matrix(1 0 0 1 990 1140)"><path d="M0 0Q12 20 0 40C19.2 40 49.2 33.2 60 20C49.2 6.8 19.2 0 0 0Z" fill="#fffaf0" stroke="#073642" stroke-width="2.5"/><path d="M70 20A5 5 0 1 1 60 20A5 5 0 1 1 70 20Z" fill="#fffaf0" stroke="#073642" stroke-width="2.5"/></g>
<g transform="matrix(1 0 0 1 990 1320)"><path d="M0 0Q12 20 0 40C19.2 40 49.2 33.2 60 20C49.2 6.8 19.2 0 0 0Z" fill="#fffaf0" stroke="#073642" stroke-width="2.5"/><path d="M70 20A5 5 0 1 1 60 20A5 5 0 1 1 70 20Z" fill="#fffaf0" stroke="#073642" stroke-width="2.5"/></g>
<g transform="matrix(1 0 0 1 570 1720)"><path d="M0 0L40 20L0 40Z" fill="#fffaf0" stroke="#073642" stroke-width="2.5"/><path d="M50 20A5 5 0 1 1 40 20A5 5 0 1 1 50 20Z" fill="#fffaf0" stroke="#073642" stroke-width="2.5"/></g>
<g transform="matrix(1 0 0 1 770 1540)"><path d="M0 0H30A20 20 0 0 1 30 40H0Z" fill="#fffaf0" stroke="#073642" stroke-width="2.5"/></g>
<g transform="matrix(1 0 0 1 770 1720)"><path d="M0 0H30A20 20 0 0 1 30 40H0Z" fill="#fffaf0" stroke="#073642" stroke-width="2.5"/></g>
<g transform="matrix(1 0 0 1 990 1540)"><path d="M0 0Q12 20 0 40C19.2 40 49.2 33.2 60 20C49.2 6.8 19.2 0 0 0Z" fill="#fffaf0" stroke="#073642" stroke-width="2.5"/><path d="M70 20A5 5 0 1 1 60 20A5 5 0 1 1 70 20Z" fill="#fffaf0" stroke="#073642" stroke-width="2.5"/></g>
<g transform="matrix(1 0 0 1 990 1720)"><path d="M0 0Q12 20 0 40C19.2 40 49.2 33.2 60 20C49.2 6.8 19.2 0 0 0Z" fill="#fffaf0" stroke="#073642" stroke-width="2.5"/><path d="M70 20A5 5 0 1 1 60 20A5 5 0 1 1 70 20Z" fill="#fffaf0" stroke="#073642" stroke-width="2.5"/></g>
<g transform="matrix(1 0 0 1 570 2120)"><path d="M0 0L40 20L0 40Z" fill="#fffaf0" stroke="#073642" stroke-width="2.5"/><path d="M50 20A5 5 0 1 1 40 20A5 5 0 1 1 50 20Z" fill="#fffaf0" stroke="#073642" stroke-width="2.5"/></g>
<g transform="matrix(1 0 0 1 770 1940)"><path d="M0 0H30A20 20 0 0 1 30 40H0Z" fill="#fffaf0" stroke="#073642" stroke-width="2.5"/></g>
<g transform="matrix(1 0 0 1 770 2120)"><path d="M0 0H30A20 20 0 0 1 30 40H0Z" fill="#fffaf0" stroke="#073642" stroke-width="2.5"/></g>
<g transform="matrix(1 0 0 1 990 1940)"><path d="M0 0Q12 20 0 40C19.2 40 49.2 33.2 60 20C49.2 6.8 19.2 0 0 0Z" fill="#fffaf0" stroke="#073642" stroke-width="2.5"/><path d="M70 20A5 5 0 1 1 60 20A5 5 0 1 1 70 20Z" fill="#fffaf0" stroke="#073642" stroke-width="2.5"/></g>
<g transform="matrix(1 0 0 1 990 2120)"><path d="M0 0Q12 20 0 40C19.2 40 49.2 33.2 60 20C49.2 6.8 19.2 0 0 0Z" fill="#fffaf0" stroke="#073642" stroke-width="2.5"/><path d="M70 20A5 5 0 1 1 60 20A5 5 0 1 1 70 20Z" fill="#fffaf0" stroke="#073642" stroke-width="2.5"/></g>
<g transform="matrix(1 0 0 1 570 2520)"><path d="M0 0L40 20L0 40Z" fill="#fffaf0" stroke="#073642" stroke-width="2.5"/><path d="M50 20A5 5 0 1 1 40 20A5 5 0 1 1 50 20Z" fill="#fffaf0" stroke="#073642" stroke-width="2.5"/></g>
<g transform="matrix(1 0 0 1 770 2340)"><path d="M0 0H30A20 20 0 0 1 30 40H0Z" fill="#fffaf0" stroke="#073642" stroke-width="2.5"/></g>
<g transform="matrix(1 0 0 1 770 2520)"><path d="M0 0H30A20 20 0 0 1 30 40H0Z" fill="#fffaf0" stroke="#073642" stroke-width="2.5"/></g>
<g transform="matrix(1 0 0 1 990 2340)"><path d="M0 0Q12 20 0 40C19.2 40 49.2 33.2 60 20C49.2 6.8 19.2 0 0 0Z" fill="#fffaf0" stroke="#073642" stroke-width="2.5"/><path d="M70 20A5 5 0 1 1 60 20A5 5 0 1 1 70 20Z" fill="#fffaf0" stroke="#073642" stroke-width="2.5"/></g>
<g transform="matrix(1 0 0 1 990 2520)"><path d="M0 0Q12 20 0 40C19.2 40 49.2 33.2 60 20C49.2 6.8 19.2 0 0 0Z" fill="#fffaf0" stroke="#073642" stroke-width="2.5"/><path d="M70 20A5 5 0 1 1 60 20A5 5 0 1 1 70 20Z" fill="#fffaf0" stroke="#073642" stroke-width="2.5"/></g>
<g transform="matrix(1 0 0 1 570 2920)"><path d="M0 0L40 20L0 40Z" fill="#fffaf0" stroke="#073642" stroke-width="2.5"/><path d="M50 20A5 5 0 1 1 40 20A5 5 0 1 1 50 20Z" fill="#fffaf0" stroke="#073642" stroke-width="2.5"/></g>
<g transform="matrix(1 0 0 1 770 2740)"><path d="M0 0H30A20 20 0 0 1 30 40H0Z" fill="#fffaf0" stroke="#073642" stroke-width="2.5"/></g>
<g transform="matrix(1 0 0 1 770 2920)"><path d="M0 0H30A20 20 0 0 1 30 40H0Z" fill="#fffaf0" stroke="#073642" stroke-width="2.5"/></g>
<g transform="matrix(1 0 0 1 990 2740)"><path d="M0 0Q12 20 0 40C19.2 40 49.2 33.2 60 20C49.2 6.8 19.2 0 0 0Z" fill="#fffaf0" stroke="#073642" stroke-width="2.5"/><path d="M70 20A5 5 0 1 1 60 20A5 5 0 1 1 70 20Z" fill="#fffaf0" stroke="#073642" stroke-width="2.5"/></g>
<g transform="matrix(1 0 0 1 990 2920)"><path d="M0 0Q12 20 0 40C19.2 40 49.2 33.2 60 20C49.2 6.8 19.2 0 0 0Z" fill="#fffaf0" stroke="#073642" stroke-width="2.5"/><path d="M70 20A5 5 0 1 1 60 20A5 5 0 1 1 70 20Z" fill="#fffaf0" stroke="#073642" stroke-width="2.5"/></g>
<g transform="matrix(1 0 0 1 1290 -60)"><path d="M20 3H20A17 17 0 0 1 37 20V20A17 17 0 0 1 20 37H20A17 17 0 0 1 3 20V20A17 17 0 0 1 20 3Z" fill="none" stroke="#073642" stroke-width="2.5"/><path d="M13 24L16.5 15L20 22L23.5 15L27 24" fill="none" stroke="#073642" stroke-width="1.6"/></g>
<g transform="matrix(1 0 0 1 1290 20)"><path d="M20 3H20A17 17 0 0 1 37 20V20A17 17 0 0 1 20 37H20A17 17 0 0 1 3 20V20A17 17 0 0 1 20 3Z" fill="none" stroke="#073642" stroke-width="2.5"/><path d="M13 24L16.5 15L20 22L23.5 15L27 24" fill="none" stroke="#073642" stroke-width="1.6"/></g>
<g transform="matrix(1 0 0 1 1290 100)"><path d="M20 3H20A17 17 0 0 1 37 20V20A17 17 0 0 1 20 37H20A17 17 0 0 1 3 20V20A17 17 0 0 1 20 3Z" fill="none" stroke="#073642" stroke-width="2.5"/><path d="M13 24L16.5 15L20 22L23.5 15L27 24" fill="none" stroke="#073642" stroke-width="1.6"/></g>
<g transform="matrix(1 0 0 1 1290 180)"><path d="M20 3H20A17 17 0 0 1 37 20V20A17 17 0 0 1 20 37H20A17 17 0 0 1 3 20V20A17 17 0 0 1 20 3Z" fill="none" stroke="#073642" stroke-width="2.5"/><path d="M13 24L16.5 15L20 22L23.5 15L27 24" fill="none" stroke="#073642" stroke-width="1.6"/></g>
<g transform="matrix(1 0 0 1 1290 260)"><path d="M20 3H20A17 17 0 0 1 37 20V20A17 17 0 0 1 20 37H20A17 17 0 0 1 3 20V20A17 17 0 0 1 20 3Z" fill="none" stroke="#073642" stroke-width="2.5"/><path d="M13 24L16.5 15L20 22L23.5 15L27 24" fill="none" stroke="#073642" stroke-width="1.6"/></g>
<g transform="matrix(1 0 0 1 1290 340)"><path d="M20 3H20A17 17 0 0 1 37 20V20A17 17 0 0 1 20 37H20A17 17 0 0 1 3 20V20A17 17 0 0 1 20 3Z" fill="none" stroke="#073642" stroke-width="2.5"/><path d="M13 24L16.5 15L20 22L23.5 15L27 24" fill="none" stroke="#073642" stroke-width="1.6"/></g>
<g transform="matrix(1 0 0 1 1290 420)"><path d="M20 3H20A17 17 0 0 1 37 20V20A17 17 0 0 1 20 37H20A17 17 0 0 1 3 20V20A17 17 0 0 1 20 3Z" fill="none" stroke="#073642" stroke-width="2.5"/><path d="M13 24L16.5 15L20 22L23.5 15L27 24" fill="none" stroke="#073642" stroke-width="1.6"/></g>
<g transform="matrix(1 0 0 1 1290 500)"><path d="M20 3H20A17 17 0 0 1 37 20V20A17 17 0 0 1 20 37H20A17 17 0 0 1 3 20V20A17 17 0 0 1 20 3Z" fill="none" stroke="#073642" stroke-width="2.5"/><path d="M13 24L16.5 15L20 22L23.5 15L27 24" fill="none" stroke="#073642" stroke-width="1.6"/></g>
<g transform="matrix(1 0 0 1 -20 -670)"><path d="M7 0C13.1 0 19.2 4.74 25.31 4.74C31.41 4.74 37.51 0 43.61 0C50.64 0 57.66 6.78 64.69 6.78C71.71 6.78 78.73 0 85.76 0C94.2 0 102.65 11.75 111.09 11.75C119.53 11.75 127.97 0 136.42 0C143.36 0 150.3 4.99 157.24 4.99C164.18 4.99 171.12 0 178.06 0C186.46 0 194.85 6.89 203.25 6.89C211.65 6.89 220.05 0 228.45 0C237.51 0 246.58 2.39 255.64 2.39C264.7 2.39 273.77 0 282.83 0C288.7 0 294.56 4.63 300.43 4.63C306.3 4.63 312.16 0 318.03 0C330.52 0 343.02 9.06 355.51 9.06C368.01 9.06 380.5 0 393 0C396.87 0 400 3.13 400 7C400 16.56 394.01 26.11 394.01 35.67C394.01 45.23 400 54.79 400 64.34C400 72.46 390.22 80.57 390.22 88.68C390.22 96.79 400 104.91 400 113.02C400 122.93 391.26 132.85 391.26 142.76C391.26 152.67 400 162.59 400 172.5C400 179.31 394.17 186.12 394.17 192.92C394.17 199.73 400 206.54 400 213.35C400 220.84 394.53 228.33 394.53 235.82C394.53 243.31 400 250.79 400 258.28C400 264.18 396.78 270.08 396.78 275.98C396.78 281.89 400 287.79 400 293.69C400 301.66 388.49 309.63 388.49 317.6C388.49 325.57 400 333.54 400 341.51C400 350.09 389.52 358.67 389.52 367.25C389.52 375.84 400 384.42 400 393C400 396.87 396.87 400 393 400C383.35 400 373.71 388.33 364.06 388.33C354.42 388.33 344.77 400 335.13 400C325.69 400 316.24 390.22 306.8 390.22C297.36 390.22 287.92 400 278.48 400C272.63 400 266.78 392.32 260.93 392.32C255.08 392.32 249.24 400 243.39 400C234.48 400 225.57 396.39 216.67 396.39C207.76 396.39 198.85 400 189.95 400C183.74 400 177.53 394.18 171.32 394.18C165.11 394.18 158.9 400 152.69 400C145.17 400 137.65 397.13 130.14 397.13C122.62 397.13 115.1 400 107.59 400C100.95 400 94.32 398.14 87.69 398.14C81.06 398.14 74.42 400 67.79 400C62.89 400 57.98 394.19 53.08 394.19C48.18 394.19 43.28 400 38.37 400C33.14 400 27.91 394.26 22.69 394.26C17.46 394.26 12.23 400 7 400C3.13 400 0 396.87 0 393C0 383.93 6.19 374.86 6.19 365.79C6.19 356.72 0 347.65 0 338.58C0 329.24 10.74 319.9 10.74 310.57C10.74 301.23 0 291.89 0 282.55C0 273.04 5.19 263.53 5.19 254.02C5.19 244.5 0 234.99 0 225.48C0 218.01 11.64 210.53 11.64 203.06C11.64 195.59 0 188.11 0 180.64C0 174.18 11.32 167.73 11.32 161.28C11.32 154.83 0 148.38 0 141.92C0 131.62 10.47 121.31 10.47 111C10.47 100.69 0 90.39 0 80.08C0 72.64 6.03 65.2 6.03 57.77C6.03 50.33 0 42.89 0 35.45C0 30.71 10.53 25.97 10.53 21.23C10.53 16.48 0 11.74 0 7C0 3.13 3.13 0 7 0Z" fill="#ffe08a" stroke="#0b1b46" stroke-width="1.8"/><text x="200" y="56.25" font-size="23" font-weight="700" fill="#0b1b46" text-anchor="middle" dominant-baseline="middle">What: Holds an 8-bit</text><text x="200" y="85" font-size="23" font-weight="700" fill="#0b1b46" text-anchor="middle" dominant-baseline="middle">number until you press</text><text x="200" y="113.75" font-size="23" font-weight="700" fill="#0b1b46" text-anchor="middle" dominant-baseline="middle">Load.</text><text x="200" y="142.5" font-size="23" font-weight="700" fill="#0b1b46" text-anchor="middle" dominant-baseline="middle">How: Eight memory cells</text><text x="200" y="171.25" font-size="23" font-weight="700" fill="#0b1b46" text-anchor="middle" dominant-baseline="middle">share one Load signal.</text><text x="200" y="200" font-size="23" font-weight="700" fill="#0b1b46" text-anchor="middle" dominant-baseline="middle">Press Load and each cell</text><text x="200" y="228.75" font-size="23" font-weight="700" fill="#0b1b46" text-anchor="middle" dominant-baseline="middle">copies its D bit. Release</text><text x="200" y="257.5" font-size="23" font-weight="700" fill="#0b1b46" text-anchor="middle" dominant-baseline="middle">Load and the byte stays.</text><text x="200" y="286.25" font-size="23" font-weight="700" fill="#0b1b46" text-anchor="middle" dominant-baseline="middle">Why: A processor keeps</text><text x="200" y="315" font-size="23" font-weight="700" fill="#0b1b46" text-anchor="middle" dominant-baseline="middle">numbers in registers like</text><text x="200" y="343.75" font-size="23" font-weight="700" fill="#0b1b46" text-anchor="middle" dominant-baseline="middle">this between instructions.</text></g>
<g transform="matrix(0 -1 1 0 150 1480)"><path d="M4 3H16A4 4 0 0 1 20 7V13A4 4 0 0 1 16 17H4A4 4 0 0 1 0 13V7A4 4 0 0 1 4 3Z" fill="#fdf6e3" stroke="#b45309" stroke-width="2"/><path d="M6.5 6L14.5 10L6.5 14Z" fill="#b45309"/></g>
<g transform="matrix(1 0 0 1 280 1430)"><path d="M4 3H16A4 4 0 0 1 20 7V13A4 4 0 0 1 16 17H4A4 4 0 0 1 0 13V7A4 4 0 0 1 4 3Z" fill="#fdf6e3" stroke="#5b4b8a" stroke-width="2"/><path d="M6.5 6L14.5 10L6.5 14Z" fill="#5b4b8a"/></g>
<g transform="matrix(1 0 0 1 520 130)"><path d="M4 3H16A4 4 0 0 1 20 7V13A4 4 0 0 1 16 17H4A4 4 0 0 1 0 13V7A4 4 0 0 1 4 3Z" fill="#fdf6e3" stroke="#0f766e" stroke-width="2"/><path d="M6.5 6L14.5 10L6.5 14Z" fill="#0f766e"/></g>
<g transform="matrix(1 0 0 1 520 -50)"><path d="M4 3H16A4 4 0 0 1 20 7V13A4 4 0 0 1 16 17H4A4 4 0 0 1 0 13V7A4 4 0 0 1 4 3Z" fill="#fdf6e3" stroke="#0f766e" stroke-width="2"/><path d="M6.5 6L14.5 10L6.5 14Z" fill="#0f766e"/></g>
<g transform="matrix(1 0 0 1 520 530)"><path d="M4 3H16A4 4 0 0 1 20 7V13A4 4 0 0 1 16 17H4A4 4 0 0 1 0 13V7A4 4 0 0 1 4 3Z" fill="#fdf6e3" stroke="#0f766e" stroke-width="2"/><path d="M6.5 6L14.5 10L6.5 14Z" fill="#0f766e"/></g>
<g transform="matrix(0 1 -1 0 550 270)"><path d="M4 3H16A4 4 0 0 1 20 7V13A4 4 0 0 1 16 17H4A4 4 0 0 1 0 13V7A4 4 0 0 1 4 3Z" fill="#fdf6e3" stroke="#0f766e" stroke-width="2"/><path d="M6.5 6L14.5 10L6.5 14Z" fill="#0f766e"/></g>
<g transform="matrix(1 0 0 1 520 930)"><path d="M4 3H16A4 4 0 0 1 20 7V13A4 4 0 0 1 16 17H4A4 4 0 0 1 0 13V7A4 4 0 0 1 4 3Z" fill="#fdf6e3" stroke="#0f766e" stroke-width="2"/><path d="M6.5 6L14.5 10L6.5 14Z" fill="#0f766e"/></g>
<g transform="matrix(0 1 -1 0 550 670)"><path d="M4 3H16A4 4 0 0 1 20 7V13A4 4 0 0 1 16 17H4A4 4 0 0 1 0 13V7A4 4 0 0 1 4 3Z" fill="#fdf6e3" stroke="#0f766e" stroke-width="2"/><path d="M6.5 6L14.5 10L6.5 14Z" fill="#0f766e"/></g>
<g transform="matrix(1 0 0 1 520 1330)"><path d="M4 3H16A4 4 0 0 1 20 7V13A4 4 0 0 1 16 17H4A4 4 0 0 1 0 13V7A4 4 0 0 1 4 3Z" fill="#fdf6e3" stroke="#0f766e" stroke-width="2"/><path d="M6.5 6L14.5 10L6.5 14Z" fill="#0f766e"/></g>
<g transform="matrix(0 1 -1 0 550 1070)"><path d="M4 3H16A4 4 0 0 1 20 7V13A4 4 0 0 1 16 17H4A4 4 0 0 1 0 13V7A4 4 0 0 1 4 3Z" fill="#fdf6e3" stroke="#0f766e" stroke-width="2"/><path d="M6.5 6L14.5 10L6.5 14Z" fill="#0f766e"/></g>
<g transform="matrix(1 0 0 1 520 1480)"><path d="M4 3H16A4 4 0 0 1 20 7V13A4 4 0 0 1 16 17H4A4 4 0 0 1 0 13V7A4 4 0 0 1 4 3Z" fill="#fdf6e3" stroke="#0f766e" stroke-width="2"/><path d="M6.5 6L14.5 10L6.5 14Z" fill="#0f766e"/></g>
<g transform="matrix(0 1 -1 0 550 1470)"><path d="M4 3H16A4 4 0 0 1 20 7V13A4 4 0 0 1 16 17H4A4 4 0 0 1 0 13V7A4 4 0 0 1 4 3Z" fill="#fdf6e3" stroke="#0f766e" stroke-width="2"/><path d="M6.5 6L14.5 10L6.5 14Z" fill="#0f766e"/></g>
<g transform="matrix(0 1 -1 0 550 1870)"><path d="M4 3H16A4 4 0 0 1 20 7V13A4 4 0 0 1 16 17H4A4 4 0 0 1 0 13V7A4 4 0 0 1 4 3Z" fill="#fdf6e3" stroke="#0f766e" stroke-width="2"/><path d="M6.5 6L14.5 10L6.5 14Z" fill="#0f766e"/></g>
<g transform="matrix(0 1 -1 0 570 1870)"><path d="M4 3H16A4 4 0 0 1 20 7V13A4 4 0 0 1 16 17H4A4 4 0 0 1 0 13V7A4 4 0 0 1 4 3Z" fill="#fdf6e3" stroke="#0f766e" stroke-width="2"/><path d="M6.5 6L14.5 10L6.5 14Z" fill="#0f766e"/></g>
<g transform="matrix(0 1 -1 0 550 2270)"><path d="M4 3H16A4 4 0 0 1 20 7V13A4 4 0 0 1 16 17H4A4 4 0 0 1 0 13V7A4 4 0 0 1 4 3Z" fill="#fdf6e3" stroke="#0f766e" stroke-width="2"/><path d="M6.5 6L14.5 10L6.5 14Z" fill="#0f766e"/></g>
<g transform="matrix(0 1 -1 0 570 2270)"><path d="M4 3H16A4 4 0 0 1 20 7V13A4 4 0 0 1 16 17H4A4 4 0 0 1 0 13V7A4 4 0 0 1 4 3Z" fill="#fdf6e3" stroke="#0f766e" stroke-width="2"/><path d="M6.5 6L14.5 10L6.5 14Z" fill="#0f766e"/></g>
<g transform="matrix(0 1 -1 0 550 2670)"><path d="M4 3H16A4 4 0 0 1 20 7V13A4 4 0 0 1 16 17H4A4 4 0 0 1 0 13V7A4 4 0 0 1 4 3Z" fill="#fdf6e3" stroke="#0f766e" stroke-width="2"/><path d="M6.5 6L14.5 10L6.5 14Z" fill="#0f766e"/></g>
<g transform="matrix(0 1 -1 0 570 2670)"><path d="M4 3H16A4 4 0 0 1 20 7V13A4 4 0 0 1 16 17H4A4 4 0 0 1 0 13V7A4 4 0 0 1 4 3Z" fill="#fdf6e3" stroke="#0f766e" stroke-width="2"/><path d="M6.5 6L14.5 10L6.5 14Z" fill="#0f766e"/></g>
<g transform="matrix(1 0 0 1 1090 -50)"><path d="M4 3H16A4 4 0 0 1 20 7V13A4 4 0 0 1 16 17H4A4 4 0 0 1 0 13V7A4 4 0 0 1 4 3Z" fill="#fdf6e3" stroke="#0f766e" stroke-width="2"/><path d="M6.5 6L14.5 10L6.5 14Z" fill="#0f766e"/></g>
<g transform="matrix(0 -1 1 0 1080 290)"><path d="M4 3H16A4 4 0 0 1 20 7V13A4 4 0 0 1 16 17H4A4 4 0 0 1 0 13V7A4 4 0 0 1 4 3Z" fill="#fdf6e3" stroke="#0f766e" stroke-width="2"/><path d="M6.5 6L14.5 10L6.5 14Z" fill="#0f766e"/></g>
<g transform="matrix(0 -1 1 0 1080 690)"><path d="M4 3H16A4 4 0 0 1 20 7V13A4 4 0 0 1 16 17H4A4 4 0 0 1 0 13V7A4 4 0 0 1 4 3Z" fill="#fdf6e3" stroke="#0f766e" stroke-width="2"/><path d="M6.5 6L14.5 10L6.5 14Z" fill="#0f766e"/></g>
<g transform="matrix(0 -1 1 0 1080 1090)"><path d="M4 3H16A4 4 0 0 1 20 7V13A4 4 0 0 1 16 17H4A4 4 0 0 1 0 13V7A4 4 0 0 1 4 3Z" fill="#fdf6e3" stroke="#0f766e" stroke-width="2"/><path d="M6.5 6L14.5 10L6.5 14Z" fill="#0f766e"/></g>
<g transform="matrix(0 -1 1 0 1080 1490)"><path d="M4 3H16A4 4 0 0 1 20 7V13A4 4 0 0 1 16 17H4A4 4 0 0 1 0 13V7A4 4 0 0 1 4 3Z" fill="#fdf6e3" stroke="#0f766e" stroke-width="2"/><path d="M6.5 6L14.5 10L6.5 14Z" fill="#0f766e"/></g>
<g transform="matrix(0 -1 1 0 1080 1890)"><path d="M4 3H16A4 4 0 0 1 20 7V13A4 4 0 0 1 16 17H4A4 4 0 0 1 0 13V7A4 4 0 0 1 4 3Z" fill="#fdf6e3" stroke="#0f766e" stroke-width="2"/><path d="M6.5 6L14.5 10L6.5 14Z" fill="#0f766e"/></g>
<g transform="matrix(0 -1 1 0 1080 2290)"><path d="M4 3H16A4 4 0 0 1 20 7V13A4 4 0 0 1 16 17H4A4 4 0 0 1 0 13V7A4 4 0 0 1 4 3Z" fill="#fdf6e3" stroke="#0f766e" stroke-width="2"/><path d="M6.5 6L14.5 10L6.5 14Z" fill="#0f766e"/></g>
<g transform="matrix(0 -1 1 0 1080 2690)"><path d="M4 3H16A4 4 0 0 1 20 7V13A4 4 0 0 1 16 17H4A4 4 0 0 1 0 13V7A4 4 0 0 1 4 3Z" fill="#fdf6e3" stroke="#0f766e" stroke-width="2"/><path d="M6.5 6L14.5 10L6.5 14Z" fill="#0f766e"/></g>
<g transform="matrix(1 0 0 1 159 1006)"><path d="M3 1H19A3 3 0 0 1 22 4V124A3 3 0 0 1 19 127H3A3 3 0 0 1 0 124V4A3 3 0 0 1 3 1Z" fill="#0f766e" stroke="#073642" stroke-width="2.5"/><path d="M3 8H19" fill="none" stroke="#073642" stroke-width="1.2"/><path d="M3 24H19" fill="none" stroke="#073642" stroke-width="1.2"/><path d="M3 40H19" fill="none" stroke="#073642" stroke-width="1.2"/><path d="M3 56H19" fill="none" stroke="#073642" stroke-width="1.2"/><path d="M3 72H19" fill="none" stroke="#073642" stroke-width="1.2"/><path d="M3 88H19" fill="none" stroke="#073642" stroke-width="1.2"/><path d="M3 104H19" fill="none" stroke="#073642" stroke-width="1.2"/><path d="M3 120H19" fill="none" stroke="#073642" stroke-width="1.2"/></g>
<g transform="matrix(1 0 0 1 279 1026)"><path d="M3 1H19A3 3 0 0 1 22 4V124A3 3 0 0 1 19 127H3A3 3 0 0 1 0 124V4A3 3 0 0 1 3 1Z" fill="#5b4b8a" stroke="#073642" stroke-width="2.5"/><path d="M3 8H19" fill="none" stroke="#073642" stroke-width="1.2"/><path d="M3 24H19" fill="none" stroke="#073642" stroke-width="1.2"/><path d="M3 40H19" fill="none" stroke="#073642" stroke-width="1.2"/><path d="M3 56H19" fill="none" stroke="#073642" stroke-width="1.2"/><path d="M3 72H19" fill="none" stroke="#073642" stroke-width="1.2"/><path d="M3 88H19" fill="none" stroke="#073642" stroke-width="1.2"/><path d="M3 104H19" fill="none" stroke="#073642" stroke-width="1.2"/><path d="M3 120H19" fill="none" stroke="#073642" stroke-width="1.2"/></g>
<g transform="matrix(1 0 0 1 1119 586)"><path d="M3 1H19A3 3 0 0 1 22 4V124A3 3 0 0 1 19 127H3A3 3 0 0 1 0 124V4A3 3 0 0 1 3 1Z" fill="#5b4b8a" stroke="#073642" stroke-width="2.5"/><path d="M3 8H19" fill="none" stroke="#073642" stroke-width="1.2"/><path d="M3 24H19" fill="none" stroke="#073642" stroke-width="1.2"/><path d="M3 40H19" fill="none" stroke="#073642" stroke-width="1.2"/><path d="M3 56H19" fill="none" stroke="#073642" stroke-width="1.2"/><path d="M3 72H19" fill="none" stroke="#073642" stroke-width="1.2"/><path d="M3 88H19" fill="none" stroke="#073642" stroke-width="1.2"/><path d="M3 104H19" fill="none" stroke="#073642" stroke-width="1.2"/><path d="M3 120H19" fill="none" stroke="#073642" stroke-width="1.2"/></g>
<g transform="matrix(1 0 0 1 1239 176)"><path d="M3 1H19A3 3 0 0 1 22 4V124A3 3 0 0 1 19 127H3A3 3 0 0 1 0 124V4A3 3 0 0 1 3 1Z" fill="#1d4ed8" stroke="#073642" stroke-width="2.5"/><path d="M3 8H19" fill="none" stroke="#073642" stroke-width="1.2"/><path d="M3 24H19" fill="none" stroke="#073642" stroke-width="1.2"/><path d="M3 40H19" fill="none" stroke="#073642" stroke-width="1.2"/><path d="M3 56H19" fill="none" stroke="#073642" stroke-width="1.2"/><path d="M3 72H19" fill="none" stroke="#073642" stroke-width="1.2"/><path d="M3 88H19" fill="none" stroke="#073642" stroke-width="1.2"/><path d="M3 104H19" fill="none" stroke="#073642" stroke-width="1.2"/><path d="M3 120H19" fill="none" stroke="#073642" stroke-width="1.2"/></g>
<text x="-8" y="60" font-size="14" font-weight="700" fill="#073642" text-anchor="end" dominant-baseline="middle">D0</text>
<text x="-8" y="240" font-size="14" font-weight="700" fill="#073642" text-anchor="end" dominant-baseline="middle">D1</text>
<text x="-8" y="420" font-size="14" font-weight="700" fill="#073642" text-anchor="end" dominant-baseline="middle">D2</text>
<text x="-8" y="600" font-size="14" font-weight="700" fill="#073642" text-anchor="end" dominant-baseline="middle">D3</text>
<text x="-8" y="780" font-size="14" font-weight="700" fill="#073642" text-anchor="end" dominant-baseline="middle">D4</text>
<text x="-8" y="960" font-size="14" font-weight="700" fill="#073642" text-anchor="end" dominant-baseline="middle">D5</text>
<text x="-8" y="1140" font-size="14" font-weight="700" fill="#073642" text-anchor="end" dominant-baseline="middle">D6</text>
<text x="-8" y="1320" font-size="14" font-weight="700" fill="#073642" text-anchor="end" dominant-baseline="middle">D7</text>
<text x="-8" y="1590" font-size="14" font-weight="700" fill="#073642" text-anchor="end" dominant-baseline="middle">Load</text>
<text x="1338" y="-40" font-size="14" font-weight="700" fill="#073642" text-anchor="start" dominant-baseline="middle">Q0</text>
<text x="1338" y="40" font-size="14" font-weight="700" fill="#073642" text-anchor="start" dominant-baseline="middle">Q1</text>
<text x="1338" y="120" font-size="14" font-weight="700" fill="#073642" text-anchor="start" dominant-baseline="middle">Q2</text>
<text x="1338" y="200" font-size="14" font-weight="700" fill="#073642" text-anchor="start" dominant-baseline="middle">Q3</text>
<text x="1338" y="280" font-size="14" font-weight="700" fill="#073642" text-anchor="start" dominant-baseline="middle">Q4</text>
<text x="1338" y="360" font-size="14" font-weight="700" fill="#073642" text-anchor="start" dominant-baseline="middle">Q5</text>
<text x="1338" y="440" font-size="14" font-weight="700" fill="#073642" text-anchor="start" dominant-baseline="middle">Q6</text>
<text x="1338" y="520" font-size="14" font-weight="700" fill="#073642" text-anchor="start" dominant-baseline="middle">Q7</text>
<text x="174" y="1458" font-size="12" font-weight="700" fill="#b45309" text-anchor="start" dominant-baseline="middle">Load</text>
<text x="284" y="1424" font-size="12" font-weight="700" fill="#5b4b8a" text-anchor="end" dominant-baseline="middle">Load</text>
<text x="524" y="124" font-size="12" font-weight="700" fill="#0f766e" text-anchor="end" dominant-baseline="middle">D0</text>
<text x="524" y="524" font-size="12" font-weight="700" fill="#0f766e" text-anchor="end" dominant-baseline="middle">D1</text>
<text x="524" y="924" font-size="12" font-weight="700" fill="#0f766e" text-anchor="end" dominant-baseline="middle">D2</text>
<text x="524" y="1324" font-size="12" font-weight="700" fill="#0f766e" text-anchor="end" dominant-baseline="middle">D3</text>
<text x="524" y="1474" font-size="12" font-weight="700" fill="#0f766e" text-anchor="end" dominant-baseline="middle">D4</text>
<text x="554" y="1868" font-size="12" font-weight="700" fill="#0f766e" text-anchor="start" dominant-baseline="middle">D5</text>
<text x="554" y="2268" font-size="12" font-weight="700" fill="#0f766e" text-anchor="start" dominant-baseline="middle">D6</text>
<text x="554" y="2668" font-size="12" font-weight="700" fill="#0f766e" text-anchor="start" dominant-baseline="middle">D7</text>
<text x="1106" y="-56" font-size="12" font-weight="700" fill="#0f766e" text-anchor="start" dominant-baseline="middle">Q0</text>
<text x="1104" y="268" font-size="12" font-weight="700" fill="#0f766e" text-anchor="start" dominant-baseline="middle">Q1</text>
<text x="1104" y="668" font-size="12" font-weight="700" fill="#0f766e" text-anchor="start" dominant-baseline="middle">Q2</text>
<text x="1104" y="1068" font-size="12" font-weight="700" fill="#0f766e" text-anchor="start" dominant-baseline="middle">Q3</text>
<text x="1104" y="1468" font-size="12" font-weight="700" fill="#0f766e" text-anchor="start" dominant-baseline="middle">Q4</text>
<text x="1104" y="1868" font-size="12" font-weight="700" fill="#0f766e" text-anchor="start" dominant-baseline="middle">Q5</text>
<text x="1104" y="2268" font-size="12" font-weight="700" fill="#0f766e" text-anchor="start" dominant-baseline="middle">Q6</text>
<text x="1104" y="2668" font-size="12" font-weight="700" fill="#0f766e" text-anchor="start" dominant-baseline="middle">Q7</text>
<text x="176" y="1054" font-size="12" font-weight="700" fill="#0f766e" text-anchor="start" dominant-baseline="middle">D0–7</text>
<text x="284" y="1074" font-size="12" font-weight="700" fill="#5b4b8a" text-anchor="end" dominant-baseline="middle">D0–7</text>
<text x="1136" y="634" font-size="12" font-weight="700" fill="#5b4b8a" text-anchor="start" dominant-baseline="middle">Q0–7</text>
<text x="1244" y="224" font-size="12" font-weight="700" fill="#1d4ed8" text-anchor="end" dominant-baseline="middle">Q0–7</text>
<text x="1122" y="-175" font-size="14" font-weight="700" fill="#5b4b8a" text-anchor="end" dominant-baseline="middle">8-bit register</text>
<text x="162" y="-45" font-size="14" font-weight="700" fill="#0f766e" text-anchor="end" dominant-baseline="middle">D</text>
<text x="1092" y="1895" font-size="14" font-weight="700" fill="#0f766e" text-anchor="end" dominant-baseline="middle">Memory cell</text>
<text x="1092" y="2295" font-size="14" font-weight="700" fill="#0f766e" text-anchor="end" dominant-baseline="middle">Memory cell</text>
<text x="1092" y="2695" font-size="14" font-weight="700" fill="#0f766e" text-anchor="end" dominant-baseline="middle">Memory cell</text>
<text x="1092" y="-105" font-size="14" font-weight="700" fill="#0f766e" text-anchor="end" dominant-baseline="middle">Memory cell</text>
<text x="1092" y="295" font-size="14" font-weight="700" fill="#0f766e" text-anchor="end" dominant-baseline="middle">Memory cell</text>
<text x="1092" y="695" font-size="14" font-weight="700" fill="#0f766e" text-anchor="end" dominant-baseline="middle">Memory cell</text>
<text x="1092" y="1095" font-size="14" font-weight="700" fill="#0f766e" text-anchor="end" dominant-baseline="middle">Memory cell</text>
<text x="1092" y="1495" font-size="14" font-weight="700" fill="#0f766e" text-anchor="end" dominant-baseline="middle">Memory cell</text>
<text x="1342" y="-105" font-size="14" font-weight="700" fill="#1d4ed8" text-anchor="end" dominant-baseline="middle">Q</text>
<text x="162" y="1485" font-size="14" font-weight="700" fill="#b45309" text-anchor="end" dominant-baseline="middle">Load</text>
</svg>