<svg xmlns="http://www.w3.org/2000/svg" viewBox="-1973.4 -408.8 6356.8 4767.6" width="6356.8" height="4767.6" font-family="Inter, 'Segoe UI', system-ui, sans-serif">
<rect x="-1973.4" y="-408.8" width="6356.8" height="4767.6" fill="#111318"/>
<rect x="260" y="-270" width="1950" height="4490" rx="117" fill="#5b4b8a" fill-opacity="0.28" stroke="#5b4b8a" stroke-width="52.973333333333336"/>
<text x="2133.377857142857" y="-108.24214285714285" font-size="170.27142857142857" font-weight="700" fill="#5b4b8a" text-anchor="end">8-bit counter</text>
<rect x="290" y="350" width="1890" height="540" rx="32.4" fill="#6e56cf" fill-opacity="0.28" stroke="#6e56cf" stroke-width="52.973333333333336"/>
<text x="2126.54" y="462.86" font-size="118.8" font-weight="700" fill="#6e56cf" text-anchor="end">T flip-flop</text>
<rect x="290" y="910" width="1890" height="530" rx="31.799999999999997" fill="#6e56cf" fill-opacity="0.28" stroke="#6e56cf" stroke-width="52.973333333333336"/>
<text x="2127.53" y="1020.77" font-size="116.6" font-weight="700" fill="#6e56cf" text-anchor="end">T flip-flop</text>
<rect x="290" y="1460" width="1890" height="530" rx="31.799999999999997" fill="#6e56cf" fill-opacity="0.28" stroke="#6e56cf" stroke-width="52.973333333333336"/>
<text x="2127.53" y="1570.77" font-size="116.6" font-weight="700" fill="#6e56cf" text-anchor="end">T flip-flop</text>
<rect x="290" y="2010" width="1890" height="530" rx="31.799999999999997" fill="#6e56cf" fill-opacity="0.28" stroke="#6e56cf" stroke-width="52.973333333333336"/>
<text x="2127.53" y="2120.77" font-size="116.6" font-weight="700" fill="#6e56cf" text-anchor="end">T flip-flop</text>
<rect x="290" y="2560" width="1890" height="530" rx="31.799999999999997" fill="#6e56cf" fill-opacity="0.28" stroke="#6e56cf" stroke-width="52.973333333333336"/>
<text x="2127.53" y="2670.77" font-size="116.6" font-weight="700" fill="#6e56cf" text-anchor="end">T flip-flop</text>
<rect x="290" y="3110" width="1890" height="530" rx="31.799999999999997" fill="#6e56cf" fill-opacity="0.28" stroke="#6e56cf" stroke-width="52.973333333333336"/>
<text x="2127.53" y="3220.77" font-size="116.6" font-weight="700" fill="#6e56cf" text-anchor="end">T flip-flop</text>
<rect x="290" y="3660" width="1890" height="530" rx="31.799999999999997" fill="#6e56cf" fill-opacity="0.28" stroke="#6e56cf" stroke-width="52.973333333333336"/>
<text x="2127.53" y="3770.77" font-size="116.6" font-weight="700" fill="#6e56cf" text-anchor="end">T flip-flop</text>
<rect x="740" y="-200" width="1440" height="530" rx="31.799999999999997" fill="#6e56cf" fill-opacity="0.28" stroke="#6e56cf" stroke-width="52.973333333333336"/>
<text x="2127.53" y="-89.23" font-size="116.6" font-weight="700" fill="#6e56cf" text-anchor="end">T flip-flop</text>
<rect x="770" y="980" width="1380" height="430" rx="25.8" fill="#6e56cf" fill-opacity="0.28" stroke="#6e56cf" stroke-width="52.973333333333336"/>
<text x="2107.43" y="1069.87" font-size="94.6" font-weight="700" fill="#6e56cf" text-anchor="end">D flip-flop</text>
<rect x="770" y="1530" width="1380" height="430" rx="25.8" fill="#6e56cf" fill-opacity="0.28" stroke="#6e56cf" stroke-width="52.973333333333336"/>
<text x="2107.43" y="1619.87" font-size="94.6" font-weight="700" fill="#6e56cf" text-anchor="end">D flip-flop</text>
<rect x="770" y="2080" width="1380" height="430" rx="25.8" fill="#6e56cf" fill-opacity="0.28" stroke="#6e56cf" stroke-width="52.973333333333336"/>
<text x="2107.43" y="2169.87" font-size="94.6" font-weight="700" fill="#6e56cf" text-anchor="end">D flip-flop</text>
<rect x="770" y="2630" width="1380" height="430" rx="25.8" fill="#6e56cf" fill-opacity="0.28" stroke="#6e56cf" stroke-width="52.973333333333336"/>
<text x="2107.43" y="2719.87" font-size="94.6" font-weight="700" fill="#6e56cf" text-anchor="end">D flip-flop</text>
<rect x="770" y="3180" width="1380" height="430" rx="25.8" fill="#6e56cf" fill-opacity="0.28" stroke="#6e56cf" stroke-width="52.973333333333336"/>
<text x="2107.43" y="3269.87" font-size="94.6" font-weight="700" fill="#6e56cf" text-anchor="end">D flip-flop</text>
<rect x="770" y="3730" width="1380" height="430" rx="25.8" fill="#6e56cf" fill-opacity="0.28" stroke="#6e56cf" stroke-width="52.973333333333336"/>
<text x="2107.43" y="3819.87" font-size="94.6" font-weight="700" fill="#6e56cf" text-anchor="end">D flip-flop</text>
<rect x="770" y="-130" width="1380" height="430" rx="25.8" fill="#6e56cf" fill-opacity="0.28" stroke="#6e56cf" stroke-width="52.973333333333336"/>
<text x="2107.43" y="-40.13000000000001" font-size="94.6" font-weight="700" fill="#6e56cf" text-anchor="end">D flip-flop</text>
<rect x="770" y="420" width="1380" height="430" rx="25.8" fill="#6e56cf" fill-opacity="0.28" stroke="#6e56cf" stroke-width="52.973333333333336"/>
<text x="2107.43" y="509.87" font-size="94.6" font-weight="700" fill="#6e56cf" text-anchor="end">D flip-flop</text>
<rect x="1550" y="1050" width="570" height="300" rx="18" fill="#0f766e" fill-opacity="0.28" stroke="#0f766e" stroke-width="52.973333333333336"/>
<text x="2090.3" y="1112.7" font-size="66" font-weight="700" fill="#0f766e" text-anchor="end">Latch</text>
<rect x="940" y="1600" width="570" height="300" rx="18" fill="#0f766e" fill-opacity="0.28" stroke="#0f766e" stroke-width="52.973333333333336"/>
<text x="1480.3" y="1662.7" font-size="66" font-weight="700" fill="#0f766e" text-anchor="end">Latch</text>
<rect x="1550" y="1600" width="570" height="300" rx="18" fill="#0f766e" fill-opacity="0.28" stroke="#0f766e" stroke-width="52.973333333333336"/>
<text x="2090.3" y="1662.7" font-size="66" font-weight="700" fill="#0f766e" text-anchor="end">Latch</text>
<rect x="940" y="2150" width="570" height="300" rx="18" fill="#0f766e" fill-opacity="0.28" stroke="#0f766e" stroke-width="52.973333333333336"/>
<text x="1480.3" y="2212.7" font-size="66" font-weight="700" fill="#0f766e" text-anchor="end">Latch</text>
<rect x="1550" y="2150" width="570" height="300" rx="18" fill="#0f766e" fill-opacity="0.28" stroke="#0f766e" stroke-width="52.973333333333336"/>
<text x="2090.3" y="2212.7" font-size="66" font-weight="700" fill="#0f766e" text-anchor="end">Latch</text>
<rect x="940" y="-60" width="570" height="300" rx="18" fill="#0f766e" fill-opacity="0.28" stroke="#0f766e" stroke-width="52.973333333333336"/>
<text x="1480.3" y="2.6999999999999957" font-size="66" font-weight="700" fill="#0f766e" text-anchor="end">Latch</text>
<rect x="940" y="2700" width="570" height="300" rx="18" fill="#0f766e" fill-opacity="0.28" stroke="#0f766e" stroke-width="52.973333333333336"/>
<text x="1480.3" y="2762.7" font-size="66" font-weight="700" fill="#0f766e" text-anchor="end">Latch</text>
<rect x="1550" y="2700" width="570" height="300" rx="18" fill="#0f766e" fill-opacity="0.28" stroke="#0f766e" stroke-width="52.973333333333336"/>
<text x="2090.3" y="2762.7" font-size="66" font-weight="700" fill="#0f766e" text-anchor="end">Latch</text>
<rect x="940" y="3250" width="570" height="300" rx="18" fill="#0f766e" fill-opacity="0.28" stroke="#0f766e" stroke-width="52.973333333333336"/>
<text x="1480.3" y="3312.7" font-size="66" font-weight="700" fill="#0f766e" text-anchor="end">Latch</text>
<rect x="1550" y="3250" width="570" height="300" rx="18" fill="#0f766e" fill-opacity="0.28" stroke="#0f766e" stroke-width="52.973333333333336"/>
<text x="2090.3" y="3312.7" font-size="66" font-weight="700" fill="#0f766e" text-anchor="end">Latch</text>
<rect x="940" y="3800" width="570" height="300" rx="18" fill="#0f766e" fill-opacity="0.28" stroke="#0f766e" stroke-width="52.973333333333336"/>
<text x="1480.3" y="3862.7" font-size="66" font-weight="700" fill="#0f766e" text-anchor="end">Latch</text>
<rect x="1550" y="3800" width="570" height="300" rx="18" fill="#0f766e" fill-opacity="0.28" stroke="#0f766e" stroke-width="52.973333333333336"/>
<text x="2090.3" y="3862.7" font-size="66" font-weight="700" fill="#0f766e" text-anchor="end">Latch</text>
<rect x="1550" y="-60" width="570" height="300" rx="18" fill="#0f766e" fill-opacity="0.28" stroke="#0f766e" stroke-width="52.973333333333336"/>
<text x="2090.3" y="2.6999999999999957" font-size="66" font-weight="700" fill="#0f766e" text-anchor="end">Latch</text>
<rect x="940" y="490" width="570" height="300" rx="18" fill="#0f766e" fill-opacity="0.28" stroke="#0f766e" stroke-width="52.973333333333336"/>
<text x="1480.3" y="552.7" font-size="66" font-weight="700" fill="#0f766e" text-anchor="end">Latch</text>
<rect x="1550" y="490" width="570" height="300" rx="18" fill="#0f766e" fill-opacity="0.28" stroke="#0f766e" stroke-width="52.973333333333336"/>
<text x="2090.3" y="552.7" font-size="66" font-weight="700" fill="#0f766e" text-anchor="end">Latch</text>
<rect x="940" y="1050" width="570" height="300" rx="18" fill="#0f766e" fill-opacity="0.28" stroke="#0f766e" stroke-width="52.973333333333336"/>
<text x="1480.3" y="1112.7" font-size="66" font-weight="700" fill="#0f766e" text-anchor="end">Latch</text>
<rect x="2330" y="-60" width="100" height="680" rx="6" fill="#1d4ed8" fill-opacity="0.28" stroke="#1d4ed8" stroke-width="52.973333333333336"/>
<rect x="-20" y="-60" width="190" height="210" rx="11.4" fill="#0f766e" fill-opacity="0.28" stroke="#0f766e" stroke-width="52.973333333333336"/>
</svg>